<svg width="243" height="101" viewBox="0 0 243 101" fill="none" xmlns="http://www.w3.org/2000/svg">
<path fill-rule="evenodd" clip-rule="evenodd" d="M90.5484 53.0698C90.343 53.0853 90.6408 52.962 90.266 53.1366C90.2763 52.8696 90.189 52.7669 90.2198 52.5256C90.2506 52.274 90.4046 52.0224 90.4098 52.0019C90.5381 51.6219 90.5844 51.2214 90.3841 50.8671L90.7795 50.8107C90.7949 50.9236 90.8103 51.0674 90.8154 51.206L90.7076 52.161C90.6254 52.4896 90.7024 52.2124 90.4714 52.5205C90.8 52.6026 90.6357 52.695 90.5535 53.0698L90.4971 53.3317C90.6665 53.3779 90.6408 53.4755 90.954 53.2906C90.913 53.4549 90.8975 53.5525 90.8821 53.7117C90.9027 53.7065 91.0054 53.686 91.0773 53.6911L91.3135 53.7322C91.3494 53.419 91.3751 53.5936 91.6164 53.1777C91.9604 52.5718 91.8166 52.8593 91.9399 52.8696C91.7345 51.9043 92.3763 51.0212 92.4739 49.7684C92.5303 49.0444 92.3814 49.3781 92.6638 48.6388C93.0078 49.0547 92.8692 49.871 92.7768 50.6566C92.7562 50.6566 92.71 50.6566 92.7152 50.6361L92.6073 50.5899C92.6073 50.5899 92.5714 50.5693 92.5611 50.5642L92.479 50.5231C92.5201 50.7028 92.5098 50.8517 92.5355 50.939C92.5817 51.0931 92.6433 51.0212 92.6844 51.319C92.7152 51.5603 92.6074 52.1559 92.4687 52.4332C92.3455 52.1148 92.4174 52.4178 92.3968 52.0892C92.3968 52.0583 92.4122 51.8786 92.4174 51.8016C92.4328 51.627 92.443 51.4268 92.4944 51.2625C92.3147 51.6733 92.402 51.7862 92.2839 52.0686C91.9501 52.8491 92.1863 52.3356 92.2325 52.9055C92.2479 53.0596 92.1658 53.7065 92.1093 53.8657C91.9963 54.1789 91.7858 54.5024 91.6729 54.8259C91.6061 55.021 91.6113 55.1391 91.5445 55.2777C91.5445 55.2777 91.1543 55.6012 91.0054 56.3559C90.9386 56.6948 90.877 56.9464 90.7692 57.3161C90.6203 57.8347 90.61 58.0914 90.266 58.1633C90.3482 57.9784 90.6716 57.1467 90.4663 56.9978L90.2968 56.9464C90.2249 57.352 90.2095 57.9476 89.9477 58.4816C89.6755 57.963 89.8604 57.9836 90.0555 57.2185C90.1684 56.7872 90.1941 56.9361 90.1839 56.5254L90.153 55.8682C90.0709 55.2674 90.379 53.5884 90.5535 53.0698H90.5484ZM53.3334 25.4359C59.4538 33.8976 60.2907 43.9355 45.1952 46.4771C48.4864 43.9355 52.6351 39.4839 52.4297 34.7139C51.2129 39.4326 44.538 41.7739 42.2942 44.8033C36.5076 31.7719 51.9471 31.3303 53.3334 25.441V25.4359ZM16.5497 87.5789C21.1965 91.1526 25.8073 93.9714 31.2961 88.7548C34.4281 85.7767 38.0428 81.9207 38.356 81.3354C38.6436 81.2584 38.4587 81.397 38.7411 81.094C41.3084 78.3522 45.4519 75.6823 39.2084 73.6952C36.5692 72.8583 35.9325 73.8698 33.432 74.1111C32.6156 74.1881 30.11 74.2189 29.5144 73.8801L29.2833 73.9571C29.0471 73.762 29.2987 73.9006 28.8931 73.7568C28.7339 73.7003 28.5696 73.6747 28.4413 73.649C27.8867 73.5412 27.8662 73.649 27.63 73.2074L26.9471 73.0431C26.6647 72.8069 25.9305 72.658 25.032 72.006L23.1835 70.7839L20.1182 67.8881C20.1182 67.8881 20.072 67.8521 20.0566 67.8367L18.1363 65.4902C17.6177 64.8946 17.0426 63.611 16.56 62.8819C16.026 62.0758 15.5844 61.0232 15.2353 59.986C14.2187 56.9875 13.8746 56.3867 13.8182 52.7772C13.9209 50.6001 14.0698 50.6772 14.7732 48.9366C14.9324 48.5463 14.9786 48.4385 15.2199 48.1458L15.682 47.6889C15.682 47.6889 15.7282 47.6529 15.7487 47.6375L15.8771 47.5297C16.7192 46.7955 15.7436 47.3859 17.1043 46.5439C17.3404 46.4001 17.2172 46.4823 17.3404 46.3796C18.6652 46.359 20.0925 44.5106 27.7173 46.1177L31.1831 47.3295C32.3281 47.7145 36.1431 49.9481 36.8157 50.6258L37.8888 51.473C38.1044 51.6373 37.9709 51.5192 38.2123 51.7297C38.7771 52.2227 38.8643 52.5872 39.4035 52.9723C40.035 53.4241 39.8348 53.3317 40.3277 53.9992C40.5074 54.2405 40.7025 54.4562 40.8925 54.7026C41.6164 55.632 42.3404 56.664 42.7204 57.8552L42.9822 58.456C43.3519 59.2005 43.47 59.5085 43.6086 60.5354C43.8602 61.8909 43.8602 63.4929 43.6549 64.8741C43.5984 65.2541 43.4854 65.4543 43.4392 65.6546C43.2081 66.702 45.6265 74.5732 50.186 68.9458C50.8997 67.467 50.8021 66.0448 50.3451 64.3144C49.8625 62.4866 50.0063 59.7755 50.8637 58.6408C51.4696 57.8398 51.4696 57.0286 52.4554 56.1608C52.6659 55.6782 52.9278 55.3496 53.2307 54.985L53.5901 54.6513C53.5901 54.6513 53.6364 54.6153 53.6569 54.6051C53.6774 54.5897 53.7031 54.5691 53.7236 54.5537C54.0574 54.2662 54.6633 53.4087 55.1921 53.039C55.3667 52.9158 55.2948 53.0031 55.4488 52.8337C55.4642 52.8183 55.4848 52.7874 55.5002 52.772L56.1574 52.0275C56.3885 51.6219 56.4706 51.6681 56.7941 51.4319C57.1176 51.1957 57.1997 50.9647 57.4154 50.6823C57.9956 49.9173 59.6335 48.649 60.1983 47.9559C60.5371 47.54 60.4293 47.4938 60.7836 47.1806C62.0826 46.0304 61.7335 46.1331 62.6885 45.3065C63.2841 44.793 63.5357 44.3976 63.8592 44.0639C64.6653 43.2424 64.501 43.535 65.3739 42.4722C65.492 42.3284 65.4252 42.4055 65.5433 42.2976L66.601 41.3015C66.9399 40.937 67.1504 40.6751 67.9514 41.6353C68.0849 41.7944 68.0027 41.6712 68.1106 41.8509L67.2069 43.0165C66.3648 43.7404 66.2827 44.2898 65.7692 44.6954L64.2186 46.4515L62.4677 48.3512C62.3034 48.5463 62.1853 48.6696 62.0467 48.8493C61.8465 49.1111 61.8875 49.1573 61.6975 49.4038C61.3433 49.8762 61.0763 49.7427 60.8452 50.3948C60.4242 50.5745 60.3215 51.0674 59.9878 51.3601C58.7709 52.4229 58.9968 52.5461 58.6117 52.9415C58.4115 53.1469 58.4423 53.0698 58.2215 53.2342L57.477 54.1019C57.4564 54.1276 57.4051 54.2097 57.3846 54.2354C57.2459 54.4305 57.3537 54.3124 57.1946 54.4921L56.4449 55.2315C56.1779 55.5498 56.0907 55.7603 55.8237 56.0941C55.3153 56.7308 55.2948 56.3559 55.1716 56.9207C54.5862 57.1261 53.7493 58.7846 54.2474 59.6523C54.8173 60.6381 56.3936 60.443 57.1381 59.6318C57.4205 59.5393 57.5181 59.5342 57.8518 58.9745C58.1085 58.5484 58.0469 58.5432 58.5296 58.1736C58.8633 57.9168 59.731 57.0902 59.7926 56.6794C60.8863 55.9349 60.5936 55.9554 61.2303 55.2623C61.7078 54.7437 61.5795 55.1391 62.5653 53.8554L63.1917 53.2085C64.424 52.2329 63.5562 52.6642 64.7885 51.4884L65.6819 50.5488C66.144 49.9224 66.4162 50.0353 66.9707 49.0649C67.4687 48.839 70.7343 44.906 71.3812 44.5928C71.561 44.8033 71.6637 44.9008 71.8998 45.0959L72.4133 45.5837L70.4622 47.8532C70.0617 48.2485 69.9333 48.5925 69.5996 49.0393C69.2453 49.5168 68.8653 49.6349 68.5213 50.1432L67.8949 50.9904C67.3866 51.5244 65.9233 53.1058 65.6101 53.6244L62.7245 57.1261C62.4164 57.6088 62.2059 57.7833 61.7335 58.1838C61.4254 58.4457 61.4768 58.4611 61.2868 58.7743L60.2958 59.9552C60.075 60.1709 60.0134 60.3095 59.8697 60.5406C59.654 60.8794 59.0892 61.3929 58.8171 61.665C56.4501 64.0115 59.4589 66.4709 61.487 63.9294L67.6433 57.2596C67.7409 57.1621 67.7871 57.121 67.8795 57.0388L68.6548 56.207C68.8397 55.9863 68.9269 55.8168 69.1118 55.6371C69.3993 55.365 69.5123 55.3598 69.7228 55.1083C69.9487 54.8361 69.923 54.7899 70.1798 54.5281L70.9089 53.8092C71.7715 53.1212 71.2324 53.1571 72.3465 52.2329C73.0089 51.6835 74.0615 50.3588 74.6879 49.6503C75.073 49.2138 75.4683 49.0187 75.8329 48.6131C76.1358 48.8801 76.5004 49.2344 76.8136 49.3935C76.562 50.4461 75.6326 51.0109 75.0832 51.74L72.7984 54.4664C72.7984 54.4664 72.5622 54.6872 72.5622 54.6924C72.4595 54.8053 72.3979 54.908 72.3157 55.0158C71.4377 56.2327 70.5495 57.0286 69.9847 57.8244C69.3685 58.6921 69.2145 58.6459 68.4238 59.6831L67.6844 60.5406C67.4277 60.8897 67.1555 61.3159 66.7653 61.6907C65.6717 62.7433 65.759 63.0154 65.2198 63.5545C65.2044 63.5699 65.1788 63.5956 65.1633 63.611C64.5318 64.2374 64.3521 64.6276 63.9619 65.0281C61.9235 67.123 64.6602 68.9458 65.8924 67.8316L66.5497 67.2103C66.9964 66.7533 67.2274 66.6969 67.5714 66.1629C68.1876 65.1873 68.6497 65.1616 68.9937 64.6122C69.8306 63.2875 69.8768 63.688 70.4262 62.9641C71.4891 61.5829 71.5507 61.8704 71.8947 61.357C72.6238 60.2787 72.9884 60.2479 73.3478 59.8217C74.2412 58.7538 75.1397 57.6652 76.1204 56.664C76.5671 56.207 76.6236 55.8938 77.0344 55.519C77.5119 55.0774 77.5837 55.1545 78.0561 54.4716C78.6517 53.6141 78.9239 53.7887 79.5246 52.8593C79.7505 52.5102 79.6889 52.541 80.151 52.2997L80.6491 52.808C80.8647 53.0185 80.9623 53.1161 81.1317 53.3266L76.0331 59.7036C76.0331 59.7036 75.992 59.7396 75.9715 59.7601L73.625 62.656C73.0346 63.6264 70.9499 66.0705 70.0257 67.0357C69.5842 67.4927 69.5893 67.9959 69.0604 68.2115C68.9115 68.5196 68.891 68.4734 68.6856 68.7712L68.4854 68.7609L68.3313 69.1922L68.1824 69.2898C67.8846 69.5208 67.7819 69.7468 67.2634 70.1216L66.4932 70.7429C65.9489 71.1639 65.3431 71.7441 64.4702 71.9751C64.2391 72.2062 63.7103 72.3346 63.3149 72.4681C62.5807 72.7659 61.5384 72.8121 60.6552 72.7967C59.2227 72.6221 57.0868 72.2267 55.8134 73.0791C52.7943 76.1084 55.3153 78.1212 58.8992 80.8938C59.7054 81.6948 60.5115 81.9926 60.799 82.5523L62.7861 84.0875C63.4125 84.755 63.9619 84.7498 64.4086 85.3454C64.9374 86.0489 65.4612 86.0232 66.1389 86.7677C73.2399 94.5824 80.0124 91.933 83.699 87.7843C84.387 87.2555 84.4435 86.9885 84.9261 86.4853C85.3625 86.0335 85.8092 85.8281 86.2405 85.3557C86.8926 84.6471 88.1711 83.3738 88.8643 82.8655C89.4188 82.4547 92.5149 78.6962 92.7614 78.0339C93.013 77.3613 92.6946 77.7669 93.3827 76.9556L93.9218 75.9441C94.1323 75.6001 94.6355 74.9224 94.7125 74.5886C94.2709 74.871 94.312 75.1996 93.8294 75.6874C93.5418 75.6309 93.7986 75.6515 93.7113 75.5796C93.28 76.1598 92.9052 77.0018 92.3558 77.5204C91.8526 77.9979 92.0169 77.9415 91.678 78.4292C91.2518 79.0351 90.2917 79.9234 89.8963 80.406C89.5574 80.8168 89.5574 80.9195 89.1467 81.3251C88.967 81.5048 88.9208 81.6126 88.7924 81.7307C88.4946 82.008 88.7462 81.664 88.4278 81.9926C88.0838 82.352 87.9093 82.542 87.5447 82.886C87.5755 82.6293 87.7347 82.4547 87.7501 82.2236C87.4523 82.5985 87.478 82.9784 86.4819 83.7589L85.0391 84.719C85.0391 84.719 85.1572 84.5136 85.1572 84.5085C85.2342 84.2929 85.2034 84.4623 85.1931 84.2415L84.0943 85.0425C84.5051 84.4623 85.2085 83.9899 85.7271 83.4713C85.7117 83.4457 85.6552 83.3943 85.6449 83.3892C85.4344 83.1992 85.6449 83.61 85.609 83.3686C85.8606 83.076 86.066 82.8192 86.4511 82.7422C86.1327 83.1068 86.1122 83.04 85.9633 83.3994C85.7168 84.0002 85.6039 83.8616 85.4139 84.2312C85.6193 84.2056 85.9787 83.7948 86.4767 83.1581C85.9119 83.5586 86.1738 83.343 86.1635 83.2249C86.1327 82.9065 86.374 82.886 86.4049 82.8552C87.0467 82.2853 86.867 82.6036 86.8053 82.2545C87.2675 81.6948 87.3496 81.4329 87.9349 80.8219L90.266 78.1006C91.0259 76.9043 90.8257 77.3664 91.2724 76.8632C91.2056 76.74 91.4007 76.9454 91.1851 76.8786C90.8976 76.7913 91.2056 77.161 91.0978 76.8119C91.1235 76.5192 92.4893 74.9583 92.5765 74.6554C92.6176 74.5013 92.3609 74.4911 92.9411 74.106C93.3929 74.2703 92.6484 74.1779 93.1311 74.2805C93.2081 73.9519 93.1721 73.9519 93.4751 73.6952C93.4751 73.6695 93.4751 73.649 93.4956 73.6182L93.6959 73.0431C94.122 71.7595 94.6458 71.8673 94.8203 71.169C94.7998 71.169 94.7587 71.2101 94.7638 71.1998L94.4404 71.4566C94.7484 70.8507 94.8306 71.0509 95.3594 70.2294C95.2568 70.1062 95.1181 70.5323 95.303 70.0086C95.3954 69.7468 95.4929 69.6543 95.6572 69.5106C95.7702 69.8905 95.6778 69.5054 95.6624 69.8238C95.6521 70.0497 95.5802 69.8495 95.6418 70.0343C95.8575 69.6441 95.7137 69.7262 95.8472 69.413C95.9653 69.1358 96.1912 68.8688 96.2477 68.6377C96.2426 68.8328 95.8832 69.2693 95.7599 69.4644C95.6727 69.2641 95.7394 69.3103 95.57 69.2179L95.9807 68.8482C95.9551 68.7096 95.9807 68.8277 95.9191 68.7096L95.8524 68.5966C96.4018 67.9702 97.8086 64.0372 98.1526 63.4416C98.3477 63.4981 98.2399 63.534 98.3067 63.5802L98.3683 63.2927C98.3683 63.2927 98.3477 63.2773 98.3477 63.2721C98.2194 63.0719 98.1988 62.9538 98.4504 62.6509L98.5326 62.1015C98.4607 62.1066 98.4556 62.0707 98.3323 62.1477C98.1167 62.276 98.1424 62.4044 98.0294 62.8049C97.6443 62.6971 98.0602 62.5636 97.8908 62.5482C97.824 62.7125 97.7675 62.8408 97.7111 63.0051C97.6854 63.0719 97.634 63.2157 97.6186 63.2875C97.557 63.5391 97.5827 63.3697 97.5724 63.5853C97.8856 63.0359 97.7727 63.1746 97.9678 63.1438C97.8343 63.5083 97.824 63.5545 97.6135 63.9602C97.4338 64.3144 96.4634 65.8959 96.5558 66.2861C96.5558 66.2912 96.5661 66.3118 96.5712 66.3169C96.5763 66.3272 96.6123 66.3477 96.6174 66.358L96.679 66.3785C96.5866 66.7123 96.5301 66.9331 96.1604 66.7482L96.2426 67.0306C96.5198 66.9382 96.2169 66.856 96.4634 67.0049C96.4377 67.0409 96.3196 67.2155 96.3145 67.2206C96.2991 67.2411 96.2837 67.2668 96.2734 67.2925C96.2631 67.3181 96.2477 67.3387 96.2375 67.3644C96.0577 67.7186 96.258 67.503 96.0064 67.8162C96.0423 67.7032 96.0577 67.7084 96.0731 67.58C96.0731 67.5595 96.0834 67.5287 96.0834 67.5081L96.0629 67.1846C94.5071 69.3103 95.8729 67.4568 95.1438 68.8431C94.8306 69.4387 94.4763 70.0651 93.9834 70.594C94.0142 70.06 94.2966 69.9059 94.425 69.5054C94.2761 69.5414 94.3685 69.4798 94.2247 69.6441L93.6805 70.5375C93.4135 70.9688 93.0438 71.2871 92.9411 71.6517L92.1658 71.6414C91.7037 71.8827 91.8218 72.4321 91.3751 73.0072C91.3751 72.9096 91.2724 72.925 91.5804 72.3654C90.8359 73.2126 90.8205 73.0277 90.5638 73.3512L90.1839 73.7876C90.0093 74.0392 90.2352 74.3011 89.3367 74.4911C89.8244 74.106 90.0401 73.7876 90.4508 73.2126C90.6254 72.9661 90.7897 72.7351 90.9181 72.4989C90.9489 72.4321 91.067 72.2011 91.1081 72.1549C91.1081 72.1549 91.1594 72.0111 91.4623 71.9187C91.2878 72.2165 91.0619 72.4064 91.0054 72.6888C92.0785 71.6671 91.755 71.7646 92.1863 71.359C92.2017 71.359 92.212 71.3949 92.2274 71.3847C92.6792 71.092 91.6831 71.4566 92.71 71.3949C92.7254 71.3949 92.7717 71.3949 92.8025 71.4001C93.3724 70.671 92.7871 71.3025 93.1105 70.7172C93.28 70.4091 93.4289 70.5632 93.3056 70.1113C92.8795 70.5272 93.0695 70.5426 92.9103 70.7737C92.6228 71.1896 93.0181 70.6915 92.3352 71.1177C92.7768 70.5837 92.6484 70.8096 92.4636 70.3578C92.71 70.0805 92.6741 70.1524 92.9308 70.0908L92.8692 70.0189C92.7357 69.87 92.5765 70.2089 92.8179 69.8341C92.4995 70.0959 92.7665 69.9008 92.3866 69.8597C92.6433 69.5722 92.5252 69.7006 92.6433 69.4746L93.5008 67.6878C93.6034 67.3387 93.701 67.2257 93.8396 66.9074L94.0399 66.3015C94.0399 66.3015 94.0501 66.2553 94.0553 66.2348C94.2247 65.5775 94.3325 65.6751 94.4712 65.3876C94.4917 65.3465 94.5225 65.177 94.5482 65.0641L94.8357 64.2734C95.3646 63.4724 94.9384 64.0166 95.3543 64.0218C95.303 64.145 95.2311 64.2939 95.2105 64.4428V64.6431C95.1541 65.2078 94.8768 65.3414 94.8665 65.7778L94.8768 65.7521C94.9282 65.6032 94.9692 65.4338 95.0206 65.2541C95.0719 65.0538 95.1284 64.8536 95.2054 64.6636C95.2927 64.4325 95.3954 64.2169 95.5443 64.0628L95.6983 64.2015L95.8832 63.7907L95.7445 63.8421L95.5648 63.8677C95.3749 63.8985 95.4365 64.0064 95.2876 63.8934L95.3184 63.3543C95.3646 63.3543 95.3851 63.3851 95.4108 63.3646C95.5238 63.2927 95.534 63.4878 95.7753 63.3646C95.8216 62.8922 95.8626 62.8049 96.1604 62.4557C96.335 62.2504 96.756 61.7266 96.792 61.5007C96.8177 61.321 96.7355 61.2697 96.8279 61.0335C97.0179 60.5406 96.9614 61.1105 97.0744 59.9244L97.0846 59.6934C97.0846 59.6934 97.0846 59.642 97.0846 59.6112C96.715 60.0631 96.6585 60.8178 96.5866 61.3518L96.3504 61.4597C96.2118 61.7061 96.4531 61.5469 96.0885 62.1836C96.0115 62.3171 96.0218 62.4557 95.9807 62.6509L95.6881 62.4095C95.6881 62.4095 95.6727 62.3839 95.6675 62.3787C95.6316 62.3325 95.6778 62.4506 95.611 62.312C95.9242 61.5418 96.3555 60.2787 96.4326 59.4777C96.5045 58.7692 96.8228 58.6511 96.8074 57.7269C96.3966 58.8462 96.2374 59.9244 95.8318 61.0746L95.0616 63.5494C94.9744 63.9037 94.6047 64.335 94.4969 64.7406L94.3582 65.0898C93.9629 65.7213 93.4854 66.8868 93.2389 67.5697C93.0438 68.1089 92.5355 68.8174 92.3147 69.3103C92.0374 69.9265 91.5496 70.4707 91.1491 70.9328C91.2159 71.0817 91.0516 71.0971 91.3237 70.9585L90.8667 71.739C90.5587 72.1343 90.7743 71.7544 90.5998 71.8827L90.5176 71.9597C90.5176 71.9597 90.5176 72.0316 90.3379 72.1959L90.3687 71.8314C90.0658 72.1959 90.1839 72.0778 90.1222 72.4013C90.0401 72.8069 90.0863 72.5759 89.6653 72.9456V72.8737C89.5626 72.5964 89.8604 72.848 89.5677 72.7299C89.3829 73.2382 89.4958 73.0996 89.5523 73.2331L89.0543 74.2703L89.9887 73.1458C89.7988 73.7466 89.6499 73.9725 89.2391 74.5013C89.3213 74.7837 89.2699 74.4294 89.3315 74.7118L88.243 75.6258C88.5562 75.6053 88.3098 75.6823 88.6076 75.5026C88.6538 75.4718 88.7565 75.3434 88.7719 75.3229L87.9606 76.1136C88.1865 75.7747 88.0428 75.7439 88.3919 75.3896C88.7873 74.9891 88.7975 74.7889 89.0799 74.3935L87.6217 75.7952C87.4164 76.016 87.4215 75.9595 87.1134 76.1649C87.8631 74.7375 88.8951 74.2087 88.967 73.8955C89.0902 73.4077 89.2494 73.1047 89.5831 72.6632L90.0914 72.0008C90.2095 71.703 90.0555 71.7954 90.3122 71.472C90.3276 71.4874 90.3482 71.5284 90.3533 71.5336C90.4354 71.6055 90.3174 71.549 90.4508 71.5952C90.5484 71.4668 90.6408 71.3539 90.7024 71.2409C90.7589 71.1331 90.7487 71.1279 90.7846 71.0253C91.0208 70.3372 91.0259 70.9534 91.1543 70.3372C91.2929 69.6749 91.678 69.3514 91.9707 68.725C92.4584 67.6776 93.0335 66.6866 93.4956 65.6032C93.6189 65.3105 93.7626 65.0795 93.8294 64.8433C94.1015 63.8831 95.1849 61.7215 95.2568 61.054L95.6213 59.3442C95.5238 59.2005 95.6829 59.221 95.3492 59.3596L95.5186 58.7846C95.2516 59.2518 94.7279 60.4225 94.7484 60.8076L94.5225 60.6792L94.2555 61.2389L94.692 61.0129C94.656 61.1978 94.5739 61.6137 94.3017 61.6034L94.2299 61.5777C94.1066 61.932 93.9475 61.9423 93.7986 62.2812C93.7369 62.4198 93.7472 62.9333 93.6753 63.0873C93.4443 63.611 92.9103 63.9499 93.3365 64.2528L93.4597 64.3196C93.203 64.5609 93.3313 64.5198 93.1362 64.8844C93.1619 64.6482 93.1721 64.6482 93.0849 64.4171C92.479 65.177 92.1093 66.3631 91.755 67.2514C91.5291 67.8111 90.533 69.6749 90.0606 70.1319C90.0863 69.9316 90.153 69.9213 90.0914 69.7519C90.0144 69.5414 89.9169 69.5619 89.8963 69.5414C89.6601 70.0856 89.8039 70.1883 89.4034 70.6504C89.6191 70.4605 89.7063 70.1575 89.9887 70.0856C90.1017 70.404 89.6139 70.7839 89.4548 71.0355C89.275 71.3231 89.5164 71.0561 89.2596 71.4206C89.0235 71.3282 89.3315 71.6619 89.2442 71.3487C89.1775 71.0971 89.4393 71.3231 89.198 71.2409L88.6384 72.2627C88.4587 72.8172 87.9503 73.7414 87.6269 74.0803C87.4934 74.0033 87.7552 74.0135 87.5139 73.9776L86.7335 75.2715C86.5435 75.5744 86.41 75.5128 86.1533 75.7028C85.5525 76.1444 86.2919 75.6309 85.8863 76.129C85.5936 76.0622 85.799 76.1136 85.5679 75.939C85.2239 76.2317 84.9056 76.3498 84.541 76.7143C84.351 76.9094 84.0378 77.3664 83.7349 77.0686C83.7298 77.0635 83.7144 77.0378 83.7092 77.0327C83.396 76.663 84.1457 77.0635 83.6425 76.9351C83.2215 77.4742 83.7554 76.8889 83.3704 77.4639L83.2368 77.3767C83.1496 77.2894 83.2369 77.3459 83.2163 77.3202C82.9699 77.582 82.9288 77.8336 82.5694 77.9825C82.5386 77.5358 83.7862 76.4114 84.1097 76.0725L85.6963 74.2703C86.1379 73.7979 85.953 74.0752 86.3535 73.839C86.3484 73.6233 86.3432 73.459 86.3227 73.2536C85.953 73.6849 85.686 74.106 85.2855 74.5527L83.0931 76.9608C82.6721 77.4075 82.1483 77.9107 81.7684 78.3625L82.2562 78.3111C82.2562 78.3111 82.3178 78.2957 82.3434 78.2906C81.8762 78.8246 81.7735 79.184 81.4757 79.7026L81.3371 80.0569C81.0547 80.519 81.0752 79.9439 81.183 80.216C81.5579 80.3547 81.4295 79.7488 82.0354 79.5024C81.984 79.3535 82.0867 79.5434 81.9584 79.4305C81.7684 79.261 81.9378 79.5845 81.8403 79.3226C82.2408 78.9889 82.1175 79.1943 82.3794 78.9992L84.4229 76.9505C84.4229 76.9505 84.4589 76.9197 84.4743 76.8991L84.7567 76.5551C84.9518 76.3549 85.1777 76.1957 85.3831 76.206C85.9427 76.2317 85.5268 76.2368 85.5628 76.6527L86.0044 76.396C85.6757 76.7708 85.7528 76.8581 85.4088 77.2534C84.8748 77.8644 83.9916 78.5011 83.8581 78.6757C83.6117 79.0094 83.7298 79.1481 83.3344 79.2867C83.8735 78.7733 83.8171 78.4857 84.4845 78.039C84.3356 77.7053 84.3921 77.9825 84.4127 77.6539L84.0276 78.0133C84.2124 77.8644 84.1457 77.8901 84.2175 77.9877L83.473 78.7373C83.2677 78.6654 83.4525 78.763 83.3601 78.6706C83.3344 78.6449 83.3601 78.6449 83.3395 78.6192L82.7747 79.3637C82.6412 79.6615 82.4872 79.6564 82.2818 79.9234L82.6053 79.831C82.6053 80.1904 82.6772 79.8053 82.5386 80.0671L82.0816 80.6319C82.0302 80.4779 81.9584 80.2828 81.9122 80.1493C81.5579 80.3804 81.2036 80.6936 80.839 80.863C80.4642 81.0376 80.3256 81.2481 80.0791 81.5254L79.9559 81.7051C80.2434 81.5972 80.418 81.284 80.6182 81.0684C80.9366 81.1762 80.5823 81.0016 80.7004 81.2276L80.7569 81.32C80.7569 81.32 80.7774 81.3456 80.7826 81.3456C80.7826 81.3456 80.8031 81.361 80.8134 81.3713L79.7454 82.085C79.4527 81.9875 79.8019 82.3417 79.6992 81.9926C79.6273 81.7513 79.807 82.0542 79.6478 81.7667C79.4578 82.1261 79.2063 82.3007 78.8725 82.5317C79.2268 81.9721 79.0933 82.1055 79.7146 81.6229C79.997 81.1967 79.7557 81.2635 79.8891 81.0068C80.0586 80.6936 80.1407 80.9246 80.2845 80.5344C80.0329 80.6217 79.8224 80.8014 79.5811 81.0632L79.5913 80.7244C79.4938 80.7141 79.3962 80.7346 79.3346 80.7449C79.4065 80.6987 79.6684 80.5395 79.7043 80.4882C79.8994 80.2315 79.8224 80.3855 79.8121 80.1185C79.2319 80.3444 79.7197 80.2982 78.7698 80.8527C78.6312 80.9297 78.585 80.9657 78.4104 81.1146L78.5336 80.976C79.0214 80.4163 79.3706 80.3752 79.694 79.8772C79.4322 79.8156 79.617 79.8618 79.3654 79.8977C78.9495 79.9542 79.5349 79.9901 79.083 79.9439L79.2679 79.641C79.5811 79.2713 80.1356 79.0043 80.3153 78.5781C80.3359 78.5781 80.3513 78.6038 80.3718 78.5935C80.6747 78.3882 80.4591 78.6192 80.4693 78.6243C80.8031 78.7578 80.2948 78.6089 80.5618 78.6706C80.7415 78.0904 80.6131 78.2495 81.183 77.7258C81.5373 77.4023 81.7376 77.0532 82.1227 76.8529L81.8608 76.4884C82.1124 76.3087 81.8197 76.5141 82.0508 76.5295L82.8056 75.7182C82.7953 75.8312 82.8261 75.7952 82.7439 75.9595C82.6567 76.1444 82.4821 76.1752 82.4153 76.4216C82.6618 76.3652 82.9545 75.8671 83.1444 75.6361C83.3293 75.4153 83.5963 75.3434 83.7606 75.0661C83.7657 75.0559 83.776 75.0251 83.7862 75.0096L84.3151 74.8299C84.4948 74.6502 84.6437 74.4346 84.8286 74.2651C85.2444 73.8749 85.0339 74.2138 85.3728 73.839C84.921 73.9006 85.1572 73.7774 84.8132 74.1727C84.6026 74.414 84.4486 74.4346 84.1611 74.5116C84.4743 73.9417 84.5718 74.0033 85.0288 73.6695C84.8902 73.2434 85.4036 73.7928 84.9415 73.6593C84.6437 73.572 84.921 73.9109 84.7977 73.5925C85.0904 73.2896 85.3163 72.8377 85.5936 72.5964C86.1276 72.1292 86.6821 71.1485 87.1596 70.5529C87.5807 70.0292 87.4369 69.8751 87.8322 69.3206C87.7398 69.6646 87.6423 69.5619 87.8117 69.87C88.4689 68.9663 88.51 68.0832 89.0132 67.2411C89.4599 66.4966 89.5934 65.8548 90.1068 65.2695C90.456 64.8792 90.1839 65.0589 90.1068 64.9563C90.2352 64.5866 90.5125 64.3247 90.6152 63.9704L90.9027 63.344C91.1235 62.8973 91.2672 62.1477 91.5445 61.5983C91.5599 61.6085 91.5753 61.6445 91.601 61.6291C91.7448 61.5469 91.6626 61.6702 91.755 61.7112C91.7653 61.7112 91.7961 61.7266 91.8012 61.7318C91.8064 61.7318 91.832 61.7472 91.8474 61.7472C92.4893 61.0643 92.0836 61.1362 92.2325 60.8332L92.1606 60.7922C92.1606 60.7922 92.1247 60.7768 92.1196 60.7716L91.9347 60.7049C91.9347 60.7049 91.8782 60.6689 91.868 60.6535C91.8526 60.6279 91.6267 60.8332 91.9193 60.4173C92.1042 60.1606 92.0066 60.3865 92.3198 60.022L92.3404 60.4327C92.6536 59.9398 92.5714 60.2787 92.6895 60.2684L92.4687 60.5919L92.8641 60.4636L92.1298 62.3377C91.7396 63.344 91.8988 63.2105 91.3083 64.2118C90.9284 64.8536 90.8359 65.4954 90.5073 66.2193C89.9477 67.4362 89.9169 67.3233 89.3777 68.304L88.777 68.6582C89.0645 69.0485 89.2186 68.6172 88.7924 69.4182L88.7359 68.9406C88.5408 69.2179 88.5562 69.1204 88.5768 69.372C88.6024 69.6852 88.4946 69.6441 88.7051 69.9162C88.8746 69.6595 89.4188 68.345 89.7936 68.4631C90.1325 68.5658 89.4188 68.3553 89.845 68.5607C89.8604 68.571 89.8706 68.5915 90.0812 68.4991C90.0812 68.5093 89.9117 68.802 89.9066 68.802C89.4188 69.3411 90.3636 68.4939 89.7063 68.8893C89.3675 69.0947 89.5523 68.9612 89.7012 69.3052L90.6768 67.7546C90.3482 67.8213 90.2557 68.1602 90.0504 68.4683C90.0452 68.4477 90.0042 68.4323 90.0144 68.4067C90.1941 67.9856 89.8809 68.535 89.8758 68.0729C89.8758 67.734 92.212 63.2003 92.3198 62.6714C92.4482 62.0501 92.7408 61.8191 92.9668 61.2748L92.9411 61.0592C92.9411 61.0592 92.9154 61.0386 92.9103 61.0335C92.9052 61.0335 92.8795 61.0181 92.8743 61.0078C93.2389 60.479 93.4699 60.0528 93.588 59.4264L93.7832 58.6613C94.045 58.1222 93.7832 58.5278 93.8653 57.9168C93.9475 57.3161 94.1836 56.8026 94.2145 56.2738L94.3325 55.4523C94.389 55.1801 94.4506 54.9337 94.4866 54.6205C94.6303 54.908 94.6098 54.6667 94.8768 54.41C94.9025 54.3894 94.9795 54.3124 95 54.2919L95.0873 54.1994C95.0873 54.1994 95.1335 54.1635 95.1335 54.1276C95.3132 54.0095 95.344 53.7835 95.534 54.3329C95.6264 54.6102 95.4981 54.2713 95.5956 54.564C95.6881 54.8413 95.8626 54.6307 95.6418 54.7129C96.2118 55.2315 95.6675 54.8104 96.104 54.7591C96.1142 55.0364 96.0577 55.1339 95.9859 55.4369L95.5802 57.2956C95.5802 57.4239 95.4211 57.3623 95.8113 57.5112C95.4981 57.8244 95.3697 58.1428 95.5751 58.5227C95.5854 58.5381 95.6059 58.5638 95.6213 58.5792C95.6727 58.5638 95.6675 58.7384 95.8421 58.4354C96.0269 58.1119 95.8062 58.5638 95.8934 58.1017C95.9807 57.6242 96.1707 57.8655 96.3247 56.7102C96.3761 56.3251 96.2683 56.4278 96.2683 56.053C96.5096 56.0941 96.222 55.9503 96.4223 56.166C96.7098 56.4689 96.2375 56.1916 96.5045 56.2738C96.5507 56.0427 96.8177 55.0723 96.6996 54.8567C96.5455 54.5794 96.2785 55.1955 96.5404 54.7848C96.412 54.4716 96.4736 54.3894 96.7047 54.2867C96.7098 54.2867 96.7355 54.2816 96.7458 54.2765C96.756 54.2765 96.7817 54.2611 96.7868 54.2559C97.059 54.0505 96.946 53.7117 97.0333 53.4241L96.792 53.2187C96.5609 52.8901 96.6225 52.9672 96.8741 52.7104C96.9768 52.9107 96.9717 52.9004 97.0795 53.1109C97.0795 53.0853 97.0692 53.0647 97.0898 53.0288V52.3972C97.1668 51.74 97.2849 51.9813 97.3362 51.0263C97.3568 50.6309 97.4184 50.7953 97.0846 50.4718L97.0538 49.9583C97.0179 49.4449 96.9357 49.4346 97.249 49.0649C97.249 49.0906 97.5159 49.3473 97.1719 49.0906C96.9049 48.8903 96.9563 48.4539 97.1103 48.1612C97.2233 47.9507 97.2798 48.0072 97.2746 47.504L97.2644 45.7378C97.3106 45.4964 97.2181 45.7018 97.3824 45.4451L97.6546 45.2346C97.5468 44.9624 97.5108 44.8341 97.4851 44.4439C97.4595 44.0588 97.6032 44.1152 97.3311 43.7148C97.5622 43.2629 97.403 43.0781 97.3824 42.693C97.3722 42.3849 97.48 42.5954 97.4133 42.2103L97.3106 41.471C97.3054 41.4402 97.2695 41.3631 97.2592 41.3323C97.1873 41.091 97.1873 40.1001 96.9512 39.7766C96.8947 40.2233 96.6071 39.6482 96.9306 40.67C97.136 41.3169 97.059 41.9947 97.0692 42.1539C97.0846 42.349 97.1155 42.4979 97.1463 42.693C97.1668 42.847 97.2079 43.0319 97.213 43.1756C97.2387 43.5761 97.1103 43.4118 97.326 43.7199C97.3208 43.7404 97.2952 43.7918 97.3106 43.7815C97.3106 43.7815 97.326 44.9676 97.2181 45.2192C96.7817 45.06 97.3414 45.2038 96.9717 44.9778C96.9563 44.9676 96.9306 44.9573 96.9152 44.947L96.7252 44.8854C96.7252 44.8854 96.5969 44.8546 96.4223 44.7006C96.1194 45.0651 96.6636 44.947 96.1348 45.7326C95.8832 45.327 96.0064 45.671 95.9345 45.2654C95.9088 45.137 95.9448 45.0497 95.9602 44.9316C95.7445 45.1473 95.9807 45.0497 95.724 45.1113C95.4827 44.6287 95.647 44.3976 95.4981 43.9047C95.4621 44.0844 95.4621 44.2179 95.4519 44.413C95.4365 44.7263 95.4211 44.6698 95.3697 44.9984C95.344 44.3514 95.2362 44.7981 95.2876 43.9458C95.3132 43.5248 95.2876 43.7969 95.1849 43.4015C95.1027 43.0883 95.1746 43.1448 95.0925 42.8522C95.0206 43.1756 95.0719 43.3143 95.036 43.6839C94.9436 44.6184 95.2054 44.1461 94.9436 44.5465C94.769 44.8187 94.9436 45.0292 94.8973 45.5889C94.8614 45.9791 94.7844 45.7069 94.846 46.0766C95.0103 46.1691 94.7947 46.1485 95.0154 46.0458L95.2362 46.4052C94.9436 46.5695 94.9846 46.0972 94.9384 46.8057V47.2216C95.0257 47.8018 94.9949 48.074 94.8819 48.7106C94.8614 48.839 94.8409 48.7517 94.8563 48.9828C94.8871 49.4295 95.0308 49.1368 94.9384 49.7889V50.3896C95.0719 49.984 94.9538 49.8094 95.2927 49.6708L95.3954 50.3075C95.57 50.5488 95.5032 50.5385 95.457 51.1341C95.4108 51.6579 95.5186 51.5757 95.1643 52.084C95.036 51.8735 94.9898 51.8838 94.9795 51.8684V51.8016C94.9846 51.7657 94.9949 51.7143 95 51.6322C95.0154 51.4473 95 50.8723 94.9333 50.6361C94.7587 51.0058 94.8255 51.1495 94.8255 51.5552C94.8255 52.1816 94.5533 51.9762 94.6663 52.4896C94.769 52.9466 94.8614 52.7207 94.5533 53.3163C94.3839 53.6398 94.3428 53.9376 94.199 54.1584V54.7745C94.0245 55.9041 93.9218 55.3855 94.0553 55.9092C94.122 56.1711 93.8704 56.8899 93.7883 57.1723C93.6599 57.619 93.4802 57.5882 93.4443 57.732C93.3364 58.1273 93.4956 57.5112 93.4699 57.8809C93.4545 58.076 93.3827 58.0811 93.3621 58.1222C93.1208 58.5432 93.3159 58.3276 93.2338 58.7538L92.9924 58.877L93.3416 57.1107C93.4751 56.6897 93.434 56.7718 93.7626 56.4894C93.7626 56.474 93.7267 56.4689 93.7369 56.4535C93.9731 56.0068 93.5778 56.7205 93.6702 56.1608C93.7575 55.6371 93.8961 55.709 93.8961 54.9953C93.8961 54.7283 93.9321 54.8567 94.2042 54.1584C93.9783 53.7681 94.3171 53.3625 94.4198 52.2535C94.4404 52.0173 94.4712 51.8838 94.5123 51.5706C94.6149 50.6874 94.7382 49.7221 94.7279 48.916C94.7228 48.5515 94.7176 48.115 94.6766 47.6324L94.6663 46.3642C94.6303 46.1023 94.5687 46.3488 94.5277 45.8815C94.3993 44.449 94.7844 44.9624 94.3428 43.8123C94.2042 44.1563 94.3325 44.182 94.2504 44.6184C94.1323 44.4387 94.1323 44.1204 94.081 43.5967L93.9937 43.0524C93.9423 42.7084 94.0604 42.7443 94.0039 42.4363C93.9577 42.1693 93.8704 42.2103 93.8088 41.9074C93.7523 41.6301 93.8088 41.8715 93.7883 41.6353C93.7575 41.2142 93.6086 40.593 93.7472 40.1514C94.1015 40.7008 93.968 40.7932 94.1118 41.3323C94.3223 40.4235 93.6599 38.3081 93.4905 37.5123C93.1465 35.9154 93.2338 35.8949 92.7203 34.2313C92.6227 33.913 92.5971 33.9643 92.6176 33.6665C92.3609 33.3636 90.9181 28.9787 90.1993 27.8388C89.5164 26.7554 89.7988 26.9146 89.5677 26.3704C89.2494 25.6104 89.4239 26.2677 89.1569 25.9082C89.0697 25.8004 88.854 25.3486 88.7667 25.1945C88.3098 24.4244 87.5653 22.7813 86.9183 22.2627C87.0159 22.0214 87.3445 22.2217 87.0415 22.1652C87.0775 21.816 86.6667 21.4053 86.6051 21.0202C86.9542 21.0356 86.5332 20.8816 86.8105 21.0972C87.0518 21.2872 86.9953 21.4874 87.4112 21.8468C87.0056 21.0869 86.9337 21.4207 86.7232 20.4811C86.7027 20.4913 86.6616 20.5273 86.6667 20.517C86.754 20.327 86.5692 20.5735 86.5435 20.5838C86.3432 20.6608 86.5281 20.6248 86.3227 20.6402C86.0506 20.1935 85.7579 19.9881 85.5423 19.6441C85.075 19.1461 83.2882 17.2514 83.2009 16.7175C83.1752 16.5583 83.242 16.7277 83.1804 16.4967L83.1342 16.8407C82.7234 16.4299 82.0816 15.86 81.7838 15.5006C81.2139 14.8177 80.4899 14.1861 80.4539 14.1297L79.6016 13.3903C79.7865 13.8935 80.2229 14.0218 80.6131 14.3915C80.9469 14.7047 81.1779 15.0898 81.486 15.4338C81.8249 15.8087 82.2356 16.1116 82.4923 16.4864L84.3356 18.6378C84.7259 19.1204 84.8491 19.141 85.1212 19.7468C85.2907 20.1165 85.6193 20.3476 85.9068 20.7943C86.1533 21.1742 86.4048 21.5747 86.487 21.9444C86.4613 21.9393 86.41 21.9393 86.4151 21.9136L86.2868 21.8417C86.2868 21.8417 86.2457 21.8109 86.2303 21.7904C86.1892 21.7493 86.0454 21.5285 86.0095 21.472C85.7066 21.0202 84.8491 19.7057 84.5102 19.639C84.6797 20.2141 85.4087 20.6197 86.0762 21.7287C86.3381 22.16 86.2816 22.042 86.6564 22.3089C86.487 22.3449 86.4305 22.4014 86.3022 22.3295L86.5435 22.6684C86.5435 22.6684 86.564 22.6427 86.5794 22.6324C86.5948 22.617 86.6102 22.6016 86.6154 22.6016C86.8772 22.4989 86.9183 22.6068 87.2572 23.0329L89.542 27.8029C89.8142 28.419 90.1736 29.0557 90.2814 29.6718L89.9271 29.3689C90.7127 30.9247 90.5484 31.0582 91.1389 32.4034C91.4264 33.0555 91.9245 35.0272 92.176 35.3814C92.2839 35.2171 92.2274 35.2993 92.3044 35.2839C92.5098 35.6484 92.4841 35.6279 92.5765 36.0695C92.3301 36.3005 92.6074 36.1259 92.325 35.9976C92.4225 36.244 92.4174 36.4186 92.5303 36.6753L93.1619 37.9641C93.321 38.0668 93.3108 38.226 93.4083 38.4621C93.0284 38.3235 93.4237 38.4005 93.1362 38.267C93.1875 38.5854 93.2132 38.3543 93.0541 38.6932C92.8743 38.3697 92.9719 38.4211 92.8692 38.0873C92.8692 38.1181 92.823 38.1695 92.8179 38.1849C92.6125 38.6727 93.1773 39.1707 93.2338 39.6944C93.2902 40.213 93.1311 39.7612 93.0951 40.2336L93.4237 41.9998C93.4237 41.9998 93.4391 42.0409 93.4443 42.0512C93.4905 42.1949 93.4648 42.1282 93.4905 42.236C93.5059 42.313 93.547 42.5184 93.5521 42.58C93.588 42.9035 93.5162 43.0062 93.4956 43.3297C93.4648 43.8893 93.7523 44.9727 93.7369 45.4194C93.7267 45.7224 93.5675 46.051 93.7215 46.8417C93.9269 47.884 93.6034 48.5104 93.5521 48.916C93.5829 48.916 93.6343 48.916 93.6394 48.916L93.701 50.2356C93.5726 51.5295 93.4854 51.4679 93.4391 51.817C93.3929 52.2021 93.5572 51.8478 93.3621 52.6283C93.1362 53.5114 93.0284 54.6359 92.7254 55.1596C92.9565 53.2906 93.1516 53.1879 93.3005 50.9236L93.3365 48.2126C93.4494 47.3346 93.3108 47.7197 93.2697 47.1292L93.0643 44.3617C93.0643 44.1204 93.0284 44.0434 93.013 43.8174L92.7306 42.9394C92.1452 42.1179 92.556 42.9394 92.4841 41.4761C92.4636 41.0243 92.4841 40.7419 92.443 40.3927L92.1966 38.6881C91.9963 38.4108 91.8988 38.4673 91.8526 38.457C91.6985 38.878 91.6677 39.0577 91.9091 39.6842C91.9245 39.3504 91.8372 39.258 91.9347 38.8678C92.176 39.2991 92.1093 39.6174 92.1555 40.0692C92.1812 40.3106 92.2377 40.4184 92.2274 40.634L92.1196 41.1321C91.7858 40.8548 91.9039 40.6084 91.6934 40.2849C91.5188 40.6803 91.8782 42.0614 92.0477 42.5852C91.7602 42.3438 91.9707 42.5235 91.8166 42.3079C91.4624 41.7893 91.4418 41.7842 91.4521 41.3118C91.4623 40.8754 91.5137 41.1013 91.1594 40.6649L90.9078 40.4441C90.9592 40.6084 91.0311 40.7829 91.144 40.9781C91.0054 41.1424 90.8462 41.0653 90.877 41.5429C90.8924 41.7636 90.9438 41.5429 90.8821 41.7996L90.6819 40.8805C90.379 41.091 90.1171 40.9832 90.1325 41.3734C90.153 41.7739 90.456 41.7431 90.2198 42.2617C90.0606 41.969 90.0966 42.1385 90.1068 41.8201C89.8244 42.2668 89.9887 42.5646 89.9579 42.9651C89.8347 42.6622 89.4702 40.2798 89.5677 39.8639L89.8655 40.0179L90.0966 39.679C90.2557 39.4428 90.1222 39.6893 90.2044 39.4942C89.2134 38.19 90.3328 38.3903 89.5574 37.4404C89.5574 37.7638 89.5369 37.6817 89.3521 37.9795C89.4291 38.0822 89.3983 38.0052 89.4753 38.1541L89.5677 39.8639C89.4188 39.5661 89.542 39.9203 89.5112 39.6534C89.4907 39.4685 89.5523 38.9961 89.3829 38.5238C89.311 38.3132 89.311 38.4775 89.2237 38.1695L88.8746 36.7575C88.8746 36.4905 88.9618 36.624 89.044 36.4443C88.7 35.9719 88.7616 36.0643 88.7359 35.6741C88.7051 35.135 88.6127 35.3814 88.433 35.0888C88.0941 34.5291 88.5408 34.8012 88.0325 33.7538C87.8785 33.4354 87.9657 33.6049 87.9093 33.2917C88.1506 33.4046 87.6577 33.1531 88.0171 33.3738C88.2019 33.4868 88.0736 33.4406 88.2173 33.4765C88.166 33.2455 88.0684 33.0298 87.976 32.809C88.1763 33.0452 88.3098 33.4509 88.4124 33.5535C88.4381 33.5381 88.6538 33.7897 88.4997 33.2095C88.3303 32.5677 87.6115 31.0376 87.3085 30.3445C87.0621 29.7848 87.1083 30.2675 87.2623 29.831L86.7026 29.4408C86.7437 29.4203 86.7643 29.4408 86.7951 29.4254L87.0775 29.4408C86.7386 29.2097 86.9594 29.1071 86.5897 29.2354C86.8105 29.5384 86.831 29.8413 87.211 30.2931C86.9799 30.3085 86.9132 30.5139 86.5692 29.7078C86.4511 29.4357 86.3638 29.1841 86.2354 28.9273C86.0146 29.0916 86.2097 28.953 86.1276 29.0608C86.1173 29.0711 86.0865 29.1173 86.0762 29.1327L86.0403 29.1892C85.8503 28.8247 85.9376 28.8452 85.5371 28.5217C86.3022 28.1264 85.6449 28.7374 85.8349 28.4139L85.5628 27.7413C85.5268 27.3356 85.6039 27.6437 85.3471 27.541C85.419 27.1816 85.3985 26.9865 85.075 26.6887C84.8594 26.7708 85.1418 26.4422 85.0801 26.7554C85.0288 27.0173 85.2701 26.7452 85.0288 26.8787C84.654 26.7708 84.1765 26.0726 84.0481 25.554C83.9197 25.0302 83.8889 24.9686 83.4114 24.4757C83.0674 24.1214 83.1958 23.8904 82.7285 23.5977C82.785 23.8955 82.9031 23.8647 83.0571 24.1933C82.7696 24.0701 82.5026 23.572 82.2459 23.2845C82.2613 23.2845 82.3434 23.0175 82.6156 23.4693C82.364 23.1099 81.7992 22.0984 81.4398 21.8982C81.6143 22.2422 82.0867 22.6119 82.2356 23.0124C82.3075 23.2024 82.2818 23.1407 82.3024 23.2845L81.7068 22.5605C81.183 21.8571 80.6182 21.051 80.0278 20.2911L80.2178 20.2603C80.3359 20.2859 80.5874 20.3219 80.5412 20.4246C80.4026 20.173 78.5953 18.4478 78.3899 18.3502C79.1755 19.2693 79.5143 19.372 80.3718 20.1165L79.9713 20.0138C79.6786 19.9419 80.0329 20.0036 79.8635 20.0395C78.9803 19.4285 76.2488 16.1167 75.4581 16.1065C75.3451 15.9165 75.4889 15.9062 75.2116 15.7419C74.4466 15.2901 74.4671 15.1155 73.4505 14.4737C73.2553 14.3453 73.0243 14.2426 72.8446 14.1245C72.3157 13.7908 73.1937 14.1861 72.593 13.8678C72.1822 13.6522 72.5468 13.8781 72.3773 13.7908C72.136 13.6676 72.3003 13.6213 71.7869 13.4519C71.7355 13.4314 71.5866 13.3903 71.4942 13.3544C71.7201 13.2517 71.792 13.3749 72.0693 13.416C71.4069 12.7639 71.3094 12.6817 70.5649 12.4301C71.2221 12.1837 71.9152 12.9231 73.1064 13.6162C72.4903 13.0309 72.0641 13.0411 71.8947 12.6047C73.3478 13.2722 72.8035 13.3184 74.0512 13.7805C73.7739 13.2671 72.0436 12.3583 71.4788 11.8807C71.1553 11.9834 71.5969 11.7267 71.4275 11.9321C71.2375 12.158 71.6945 11.8551 71.3864 11.9834C70.2568 11.357 67.9771 10.0683 66.9039 10.0529C67.0939 10.5458 67.3044 10.3044 67.5971 10.746L66.1492 9.8372C66.37 9.88855 66.3956 9.87315 66.6061 9.85261C66.2878 9.60102 66.0157 9.33916 65.6563 9.31862C65.6819 9.524 65.6409 9.49833 65.8206 9.74478C65.9849 9.96043 65.6255 9.51887 65.9695 9.89882L66.1338 10.1042C65.5176 9.75505 65.2609 9.72425 64.6602 9.55994C64.234 9.66777 63.6281 9.17485 62.9966 9.06703C62.3753 8.96434 62.8323 9.02595 62.7707 8.93353C62.6166 8.69734 62.2778 8.68194 61.9748 8.71275C60.989 8.8103 61.3073 8.45602 60.6347 8.57411L60.6501 8.27118C60.1572 8.16849 60.3831 8.2301 60.2239 8.30198C59.6694 8.55358 59.808 8.15822 59.1046 8.10687C58.9557 8.0966 58.0469 7.75259 57.4667 7.88095C57.2151 7.60369 57.5643 8.14795 57.4359 7.80907C57.2613 7.34696 57.7029 7.84501 57.3897 7.69611L56.8711 7.41885C57.0713 7.20833 56.8968 7.62936 56.943 7.3675C56.6863 7.38291 56.8506 7.35723 56.6914 7.40858L54.3038 7.21347C53.9752 7.19806 53.9034 7.28021 53.8161 7.28535C53.8161 7.28535 53.7904 7.28535 53.7853 7.28535L53.7339 7.25968C53.7339 7.25968 53.0356 6.96701 52.476 6.98755C51.0999 7.03889 50.9972 6.68974 49.7649 6.88999C49.4723 6.9362 49.5441 6.9362 49.2155 6.9208C48.8869 6.91053 48.9999 6.82838 48.6764 7.03889C49.0564 7.12104 48.9177 7.01835 49.1591 7.01835C49.5133 7.01322 49.2515 7.02349 49.5698 7.09537C50.0319 7.19806 51.5671 7.16212 52.1422 7.21347L52.173 7.35723C52.0755 7.35723 52.019 7.31616 51.8855 7.34183C51.5312 7.39831 51.8649 7.30589 51.5825 7.45992C51.3515 7.47019 51.0434 7.42398 50.8021 7.41371C49.9036 7.38804 49.6982 7.5164 49.3439 7.88095C49.0564 8.17876 49.7855 7.7988 49.195 7.96311L48.7534 8.06066H48.4556C48.4556 8.06066 48.4043 8.04526 48.3837 8.04012C48.3632 8.04012 48.3375 8.02985 48.317 8.02472C47.5006 7.88609 47.896 8.28658 46.561 8.0658L45.2825 8.09147C43.8089 8.64086 44.8717 8.30198 43.6086 8.52277C43.2544 8.58438 43.0849 8.70248 42.7306 8.75896C42.3712 8.81544 42.2069 8.76923 41.8013 8.83084C41.6319 9.12864 41.7859 8.83084 41.7859 8.98487C41.7859 9.03622 42.1094 9.06189 41.6113 9.10297C41.0671 9.14918 41.2108 9.21079 40.8514 9.31862L38.1969 9.70884L35.8915 10.8179C35.5629 10.9206 36.0096 10.8487 35.645 10.9052C36.0866 10.9617 35.8607 10.6228 35.8607 10.6074C35.3369 10.9873 35.4756 10.7666 35.0289 10.9668L32.9134 12.0964C33.0777 11.9783 33.2523 11.9629 33.4782 11.8653C33.4526 11.9988 33.4885 11.8859 33.4064 12.081C33.4064 12.0861 33.3242 12.2248 33.3139 12.2556C33.6271 12.0296 35.0597 11.3776 35.455 11.3262C36.0301 11.2543 37.0775 10.9206 37.6013 10.7101C37.5807 10.7717 37.6577 10.7152 37.5088 10.859C37.2932 11.0592 36.1431 11.167 35.4037 11.8191C35.568 11.8191 35.8812 11.7626 36.0404 11.7267C35.6655 11.9629 35.1726 12.0605 35.0443 12.3737C35.4858 12.4096 35.3626 12.4045 35.7785 12.1272C35.989 11.9834 35.8658 12.0194 36.102 11.9475C36.2457 11.9064 36.0968 11.927 36.2817 11.927C36.8516 11.9321 37.2983 11.6908 37.6064 11.6651C37.8528 11.6446 37.9196 11.6394 38.2379 11.5213C38.2944 11.5008 38.5306 11.3981 38.5819 11.3878C38.8438 11.3159 38.736 11.357 38.8695 11.3878C38.9568 11.4032 39.0235 11.5111 39.4086 11.2903C39.7423 11.1003 39.5062 11.0849 39.9837 11.2081C39.9939 11.1876 40.0042 11.1516 40.0093 11.1414L40.3174 10.8949C40.3174 10.8949 40.3688 10.8949 40.3893 10.8949L42.1402 10.6177C43.0798 10.2685 42.6228 10.4842 43.28 10.3455C43.7678 10.2428 43.8551 10.2326 44.3583 10.1812L47.7984 9.89882C48.1989 9.90909 48.5121 10.0426 48.8972 9.77046C49.1385 9.90396 48.8972 9.83207 49.2258 9.86288C49.308 9.86801 49.4723 9.85774 49.5647 9.84747C50.5711 9.73451 50.34 9.85261 50.8534 9.8218C52.3989 9.72425 54.3809 9.99638 55.9623 10.2685L57.8826 10.6433C58.3447 10.7614 58.7555 10.8128 59.1098 10.8898C59.387 10.9514 60.4293 11.3416 61.1122 11.4289C61.9132 11.5316 62.4472 11.9475 62.7553 12.0194C63.6743 12.235 64.5061 12.6817 65.3277 13.0822L67.7203 14.2067C68.0027 14.4583 67.7717 14.448 68.1208 14.6842C68.4084 14.8742 68.3211 14.6534 68.6291 15.0282C68.6343 15.0282 68.6291 15.0077 68.6291 15.0077L68.6702 14.9461C68.7062 14.9306 68.6548 14.8947 68.8653 14.9409L71.3042 16.3272C71.602 16.5069 71.4583 16.4453 71.6636 16.8664C71.6688 16.8766 71.6791 16.9074 71.6893 16.9228C71.8844 17.2669 72.095 17.1744 72.3876 17.349C73.0243 17.729 73.4248 18.2167 73.9126 18.6224C74.5184 19.1255 75.2629 19.7417 75.9766 20.4348C75.9458 20.4348 75.915 20.4451 75.8894 20.4451C75.5043 20.4657 75.5145 20.4708 75.227 20.3065L75.1089 20.1525C75.1551 19.8957 74.9395 20.1987 75.2065 20.1319C75.5453 20.0498 75.2167 20.4092 75.2835 20.1062L74.1898 19.3053C73.815 19.0434 73.5069 18.7097 73.1373 18.4375C72.3568 17.8676 71.4377 17.3285 70.683 16.7226L68.28 15.2028C67.9565 15.0539 67.7563 15.0333 67.7563 14.8228C67.7563 14.8177 67.7563 14.7869 67.7563 14.7817L67.782 14.6945C67.3301 14.6996 67.4123 14.5096 67.0272 14.5096C67.0169 14.5096 66.9861 14.5148 66.981 14.5148C66.8783 14.5353 66.9091 14.6123 66.9399 14.6174C66.1184 13.8062 64.4959 13.57 63.4176 12.8358L63.7565 12.8768C64.2289 12.9795 64.6961 13.2363 65.1377 13.4262L65.7333 13.6059C64.2083 12.5739 61.1738 12.0656 60.0186 11.5111C60.075 11.6754 60.2445 11.7524 60.4447 11.8037C61.1327 11.9834 61.6257 11.8653 61.7643 12.3326C61.0865 12.3326 59.7516 11.9013 59.0225 11.6548C58.4628 11.47 57.5694 11.393 56.9789 11.2389C56.6041 11.1414 56.7273 11.2389 56.3628 11.1106C55.952 10.6895 56.7017 11.1106 56.2858 10.9514C56.0342 10.8538 56.1779 10.9771 56.1061 11.0079C55.9315 11.0849 56.0034 11.1003 55.8391 11.09C55.5515 11.0695 55.2743 10.8692 54.9149 10.8641H54.6735C54.6735 10.8641 54.6325 10.859 54.6222 10.8538C54.5452 10.8436 54.6016 10.823 54.3757 10.8282C53.4412 10.8538 52.5786 10.592 51.6647 10.7717C50.9407 10.248 51.9009 10.6844 51.408 10.4277C51.3156 10.3815 51.218 10.4071 51.0434 10.4277C49.9446 10.5458 48.8972 10.6998 47.7933 10.7049C47.2285 10.7049 46.7356 10.8949 46.1759 10.8846C45.7959 10.8846 45.7035 10.8487 45.3749 11.167C45.7087 11.2235 46.407 11.1106 46.8023 11.09C47.0847 11.0746 47.2439 11.0644 47.4749 11.0438C47.8395 11.0079 47.8549 10.9309 48.1989 11.0849C47.7676 11.2954 47.0642 11.1722 46.5404 11.2697L44.1837 11.6651C43.4392 11.7267 42.5099 12.1375 41.8629 12.0142C42.4585 11.6959 42.8231 11.8345 43.3519 11.47C43.1927 11.5213 43.0644 11.5008 42.8898 11.5162L40.4971 12.2504C40.2045 12.3891 40.0658 12.692 39.9323 12.8101C39.6756 13.036 36.6514 14.0937 36.256 14.5199C36.7592 14.4531 37.288 14.1605 37.7912 14.0116C38.4279 13.8267 38.5357 13.3338 39.1878 13.5033C39.4805 13.1284 39.0697 13.8113 39.2032 13.4108C39.2186 13.3698 38.9927 13.5597 39.2392 13.3287C39.4754 13.1079 39.9272 13.0565 40.2404 12.9539C40.7076 12.7998 41.2211 12.6612 41.714 12.5482C41.9553 12.4918 42.2223 12.4147 42.4534 12.3429C42.7666 12.2556 42.9206 12.2504 43.1927 12.1888C44.5637 11.8705 46.1194 11.66 47.5057 11.5932C48.1322 11.5624 49.8728 11.393 50.3862 11.5932C50.3041 11.5932 50.1757 11.5932 50.0833 11.5932C50.0627 11.5932 50.0319 11.5932 50.0165 11.5983C49.996 11.5983 49.9703 11.6035 49.9498 11.6086L47.3876 11.8653C46.217 11.8653 45.1336 12.2761 43.9475 12.3737C43.2595 12.4301 42.1967 12.8563 41.4675 13.0257C40.8411 13.1746 41.2724 13.0206 41.0671 12.959C40.5793 12.8204 40.7282 13.1644 40.2763 13.303C40.0402 13.3749 40.0042 13.3184 39.7269 13.4262C39.3316 13.5854 38.9927 13.7959 38.6025 13.9294C37.5294 14.2888 36.5487 14.5969 35.5474 15.1309C35.1983 15.3157 34.7516 15.6341 34.4333 15.6906L33.432 16.0859C33.432 16.0859 33.4526 16.1013 33.4526 16.0962C33.4526 16.0962 33.4731 16.1065 33.4731 16.1116L33.4936 16.127C33.5655 16.1835 33.6117 16.05 33.355 16.5737C33.1496 16.5634 33.201 16.4915 32.9751 16.5429L31.9019 17.1693C31.409 17.5082 31.0137 17.7803 30.6799 18.2527C30.9469 18.1808 30.8032 18.2527 31.065 18.0165C30.9367 18.3246 30.7159 18.3143 31.0856 18.227C31.6452 17.6571 31.8198 17.6211 32.3178 17.2771C32.7902 16.9536 32.7081 17.2001 33.1958 16.7791C33.5399 16.8664 33.0572 16.6353 33.2575 16.8304C33.4834 17.0512 32.9494 16.7842 33.3037 16.8766C33.6323 16.6661 33.9506 16.5634 34.31 16.3478L35.378 15.783C35.5629 15.8908 35.3575 15.6238 35.4191 15.8703C35.491 16.1629 35.224 15.9011 35.4191 15.9524C35.5783 15.8292 35.8966 15.4954 36.0609 15.6187L36.0968 15.6649C36.523 15.3774 38.3509 14.4531 38.6128 14.5866C38.7 14.6328 38.5819 14.5969 38.659 14.6123C39.2186 14.7253 39.6294 14.0629 40.0915 13.991C40.4509 13.9346 40.2558 14.1451 40.7076 13.8319C40.6717 13.8575 40.5536 13.9243 40.5433 13.9346C40.5331 13.9448 40.5125 13.9705 40.5023 13.9859L40.456 14.104C40.456 14.104 40.4406 14.1502 40.4406 14.1707L40.9079 14.0372C40.6666 14.4275 40.8771 14.1964 40.913 14.217C41.4059 14.0013 41.3751 13.8421 41.7089 13.76L43.049 13.4724C43.5368 13.4262 43.3571 13.6008 43.8654 13.3287L43.8962 13.4108C44.0348 13.5957 43.6138 13.3595 43.9732 13.4981C44.1118 13.5495 44.1786 13.4878 44.3275 13.4673C44.6818 13.4262 44.8101 13.4006 45.1387 13.3389C45.6727 13.2414 46.2272 12.9693 46.7561 12.959C47.0231 12.9539 47.3568 13.2773 48.2451 13.1233L50.0987 13.0257C50.4786 13.113 50.7713 13.0155 51.1615 13.0822C52.173 13.2619 53.3437 13.2054 54.4322 13.3389L55.6594 13.5238C55.8185 13.5597 55.8955 13.6008 56.065 13.647C56.6709 13.7959 56.9122 13.6984 57.6464 13.95C58.2574 14.1605 58.7093 14.1348 59.2946 14.3248C60.8966 14.8434 61.0044 14.828 62.6115 15.4903C62.8939 15.6033 63.0685 15.5879 63.3817 15.7368C65.3841 16.7072 67.3661 17.6827 69.2093 18.9766C73.7637 22.1755 77.594 26.4987 79.9148 31.0376C80.9777 33.1171 81.943 35.2274 82.4872 37.3582L83.5141 42.1898C83.5963 42.7187 83.776 43.3759 83.6425 43.8534C82.287 40.3722 82.7901 36.9783 80.2845 32.1724C80.038 31.7051 79.8019 31.0017 79.4476 30.519C79.1138 30.0621 79.0419 30.519 78.929 29.8721C78.7031 28.5371 75.6275 24.9994 74.7444 24.1009C73.6096 22.9405 72.6392 22.0471 71.4685 21.0151L68.8807 19.0023C68.4392 18.7097 68.4135 18.8175 67.9976 18.7097L68.126 18.5659C67.6074 18.1551 67.4893 18.2681 67.1607 18.0473C66.755 17.7752 66.6216 17.6057 66.1543 17.3593C65.7795 17.159 65.492 17.0974 65.2558 16.9434C64.4599 16.4197 65.2814 17.1539 64.4805 16.7431L64.614 16.5942C63.8438 16.1373 63.4946 16.3837 62.1751 15.8035C62.4318 15.6752 62.1391 15.7727 62.3958 15.747C62.5293 15.7316 62.5653 15.747 62.6834 15.7522C62.4318 15.5725 61.8105 15.3825 61.6103 15.403L61.7797 15.6752C61.7797 15.6752 61.8002 15.7214 61.8054 15.747C61.2098 15.326 60.6604 15.2952 59.9415 14.9974C59.6232 14.8639 59.5154 14.8793 59.2124 14.7971C59.2381 14.792 59.2586 14.8074 59.2895 14.7817C59.423 14.6893 59.767 14.7663 59.9107 14.7766C59.654 14.6277 59.2997 14.6072 58.9403 14.4326C59.0943 14.6534 59.0327 14.4275 59.2073 14.7561C58.4628 14.6585 57.4564 14.258 56.7838 14.2015C55.5823 14.104 54.3603 13.6573 53.1588 13.6522L52.8816 13.6881C52.6967 13.7189 52.9278 13.7805 52.5735 13.7035L51.4593 13.5649C50.9613 13.5443 50.5351 13.8832 49.806 13.6727C49.2104 13.5033 49.5441 13.7805 48.9793 13.7035C48.7483 13.6727 48.6661 13.6624 48.4197 13.683L47.937 13.7138C47.0539 13.7138 46.1656 13.9294 45.3184 13.9962L45.1182 14.0218C45.1182 14.0218 45.072 14.0321 45.0514 14.0321L44.7742 14.0629C44.5637 14.0937 44.384 14.1502 44.1734 14.1964L42.7512 14.4942C42.3558 14.6637 43.0798 14.371 42.6023 14.6226C42.5355 14.6585 42.1196 14.7253 42.0323 14.7355L41.2314 14.9204C41.2314 14.9204 41.18 14.9358 41.1646 14.9409C41.0106 14.9974 41.1441 14.9152 40.9541 15.0487L41.8578 15.0333C42.1556 14.9923 42.0888 14.905 42.3866 14.869C42.8693 14.8074 42.5509 15.0641 43.049 14.8536C43.3416 14.7304 43.126 14.8177 43.3981 14.7355C43.6805 14.6482 43.7473 14.6431 43.9989 14.5712C44.3377 14.4839 44.2196 14.4788 44.5945 14.448C44.8512 14.4275 45.0104 14.3864 45.2722 14.335C46.0219 14.1964 45.4109 14.4788 46.2118 14.3607C46.6842 14.2888 46.9872 14.2632 47.4955 14.2118C48.2194 14.1348 50.5813 13.9602 51.2591 14.1502L52.3116 14.181C52.7686 14.1143 53.6312 14.2169 54.1498 14.2734L55.4488 14.5045C55.5567 14.5302 55.7107 14.5558 55.798 14.5764C56.0444 14.638 55.608 14.4993 55.9212 14.6123C56.1728 14.7047 56.2806 14.8793 56.6144 14.8434C56.9533 14.8074 56.6195 14.6123 57.0611 14.8331C57.4102 15.0025 57.2973 14.905 57.6413 14.9666C58.0931 15.0436 57.8364 15.0693 58.1393 15.1976L60.3934 15.8549C61.0557 16.0346 62.6218 16.5172 63.1712 16.8818C63.6076 17.1693 64.0646 17.2771 64.4856 17.4722L66.9194 18.8483C69.3274 20.2295 71.4531 22.006 73.4607 23.9725C74.5749 25.0662 75.4375 26.2728 76.4388 27.5513C78.7133 30.4472 80.7107 34.5291 81.5681 38.0103C82.0354 39.9049 82.3794 41.738 82.6207 43.6531C82.7747 44.8546 82.8107 48.0791 82.6823 49.3473C82.6669 49.4808 82.6567 49.5784 82.6464 49.6605C82.7953 40.0898 78.9803 30.5088 71.335 23.5669C57.2254 10.7614 35.4037 11.8191 22.5982 25.9288C21.3762 27.274 20.2825 28.6912 19.3121 30.1648C18.9886 30.4523 18.6241 31.1198 18.3879 31.6435C18.2955 31.7975 18.2082 31.9567 18.1209 32.1107C17.7769 32.0183 18.2493 31.9362 18.0695 31.8848C17.9052 32.2032 17.7101 32.6755 17.5099 33.2301C17.2018 33.8205 16.9143 34.4213 16.6422 35.0272C16.6832 34.8474 16.7192 34.6883 16.7448 34.5702L17.6382 31.9464C17.9566 31.1557 18.5265 30.0107 18.7319 29.2765C18.2544 29.7899 17.9515 30.442 17.6177 31.0582C17.4893 31.2892 17.325 31.7359 17.171 31.854C16.7243 32.198 16.139 33.9797 16.1236 33.9951C15.9901 34.1183 16.2571 33.6768 15.9285 34.1286C15.7796 34.334 15.7847 34.4007 15.7282 34.6113C15.6204 34.9707 15.6152 35.1452 15.3996 35.4995C15.1891 34.0516 16.9554 30.7193 17.6691 29.0249C17.7769 28.763 17.8898 28.5371 18.0233 28.2599C18.2184 27.8542 18.1106 27.8337 18.3109 27.4383C18.5881 26.8838 19.0143 26.319 19.3275 25.7645C19.6253 25.2356 20.1131 24.6811 20.3955 24.0804C20.7549 23.3102 20.8011 23.1151 21.5148 22.5349C21.5353 22.2165 22.2336 21.3026 22.3466 20.8045C21.6894 21.0202 21.1451 21.7236 20.5649 22.2011C20.1747 22.5195 20.1593 22.7916 19.9282 23.1151C19.6921 23.4437 19.4302 23.5823 19.1016 24.0136C18.6138 24.6606 18.2903 25.4102 17.9104 25.9031C17.3456 26.6322 17.2994 27.1867 16.9554 27.8696C16.9759 27.4127 17.3148 26.9197 17.4072 26.4679C17.058 26.8376 16.3238 28.455 16.1133 28.9427V28.6141C15.9387 28.8247 15.8874 28.9787 15.836 29.1892C15.7487 29.5743 15.8976 29.2662 15.6769 29.7437C15.3483 30.4574 15.492 30.4009 15.2969 30.7296C15.2918 30.7398 15.2712 30.7655 15.261 30.7758L14.8605 31.89C14.8605 31.89 14.8502 31.9413 14.8399 31.9618C14.8348 31.9824 14.8245 32.0132 14.8194 32.0337L14.7116 32.3726C14.46 33.0196 14.7989 32.2545 14.4908 32.5729C14.5267 32.9887 14.4035 33.1017 14.3214 33.4663L13.9619 33.4971C13.9465 33.7692 13.469 35.0836 13.1918 35.5149C13.0891 35.6741 13.1455 35.5765 13.1045 35.6792C13.012 35.936 13.1147 35.7203 13.0377 35.9565C12.9812 36.1311 12.9966 36.0643 12.9196 36.2389C12.8323 36.4391 12.7656 36.6034 12.6937 36.855C12.2829 38.2003 12.134 38.8164 11.9389 40.2181C11.8876 40.5827 11.8311 40.9729 11.7746 41.3837C11.6925 41.9639 12.057 41.8612 11.6257 42.4209C11.6103 42.1128 11.6411 42.2566 11.5333 42.082L11.3998 41.7277C11.0096 41.8971 11.3074 41.7482 10.8915 41.7893L10.7529 42.2874L10.2497 41.7585L10.0186 40.6905C10.0186 40.6905 9.93647 40.7162 9.94161 40.7008L9.79784 40.7162C9.79784 40.7162 9.75163 40.7213 9.73109 40.7213C9.53085 40.7367 9.68488 40.747 9.4949 40.7367C9.53084 40.3979 9.6284 40.3003 9.47437 39.9768L9.01739 40.4595C9.07901 40.0025 9.20737 39.2837 9.84919 38.9602C10.2189 39.3555 9.98782 39.8536 10.1213 40.2849C10.2754 39.7868 10.1983 39.5199 10.2343 39.0783L11.1534 35.3096C11.4358 34.5086 11.6925 33.5895 11.9133 32.7577C12.2008 31.6692 12.9042 31.4073 12.6218 30.8887C12.4318 30.5293 12.3394 30.6936 12.093 30.7193C11.8465 30.709 11.8979 30.709 11.5641 31.0171C11.0455 31.4895 11.446 31.279 10.9788 31.2327L11.4152 30.5909C11.4974 30.6525 10.9788 31.1352 10.912 31.1968L10.8915 31.0068C10.9274 30.2264 11.2971 30.5961 10.7118 30.2418C11.0558 30.0467 10.8812 30.2983 10.6604 29.8721C10.8812 29.6051 10.9582 29.3535 11.1277 29.0711C11.025 28.9119 11.2766 28.7682 10.8453 28.8144L10.9634 28.7374C11.2509 28.4447 11.1585 28.3677 11.4768 27.8337L11.1328 27.8234C11.0199 27.8388 10.8864 27.9261 10.8658 27.9364L11.0045 27.5359C10.8401 27.7156 10.645 27.7618 10.6399 27.7618C10.7169 27.5667 10.758 27.5256 10.8299 27.2997C10.3472 27.618 10.5834 27.7156 10.3986 27.4948L12.2367 24.0906C12.3651 24.5322 12.0468 24.8711 11.7284 25.4461C11.523 25.8158 11.2098 26.5706 11.0815 26.7606C11.7387 26.2317 13.8541 22.1344 14.881 21.0253C13.4177 22.3706 13.2996 23.6028 12.2675 23.9725C12.057 23.4591 12.6834 23.1459 13.0069 22.6632C13.2636 22.273 13.6231 21.7955 13.9055 21.3745C12.2829 23.0072 10.6091 26.165 9.62327 28.2547C9.25872 29.03 8.96605 29.9388 8.41666 30.5961C8.23181 30.6371 7.93401 31.1917 7.57973 31.1865C7.55406 31.1865 7.52838 31.1865 7.50271 31.1814C7.24085 31.1455 6.99439 30.9811 6.7428 30.7706C7.27166 30.1031 8.27802 27.0943 8.23181 26.5655C8.01616 26.8376 7.7389 27.1867 7.53352 27.4794C7.46163 27.7567 7.25625 28.2701 7.13303 28.5833C6.97386 28.9787 6.94305 29.3022 6.80955 29.7489C6.65038 30.2931 6.52715 29.9542 6.46554 30.786C6.42446 31.2892 6.19341 31.4022 6.08558 31.8848C5.7313 32.1467 5.81345 32.2442 5.75697 32.5626C5.7159 32.809 5.65428 32.9733 5.57727 33.2455C5.19218 34.6215 5.42323 33.5689 5.01247 34.3237L5.39242 34.2262C4.64278 34.8937 4.81736 35.4584 4.71467 36.0849C4.71467 36.1054 4.7044 36.1362 4.69926 36.1516C4.65305 36.3673 4.54523 36.547 4.4066 36.7934C4.21662 36.4186 4.34498 36.5778 4.29364 36.4854C4.29364 36.4854 4.34498 36.4854 4.19608 36.3775L3.95989 36.2594C3.68263 36.9475 3.57994 37.5636 3.42077 38.2311L3.2462 39.4377C3.22052 39.6893 3.16404 39.4942 3.24106 39.6328L3.29241 39.679C3.29241 39.679 3.49779 39.4582 3.36942 39.7047C3.36429 39.7201 3.40023 39.7047 3.41563 39.7098C3.33348 39.9563 3.33862 39.8228 3.46698 40.0692C3.56454 40.213 3.50292 40.4595 3.53373 41.0191C3.55427 41.4042 3.35915 41.6199 3.31808 41.9793C3.20512 42.9548 3.36429 42.6622 3.46698 42.7033C3.83667 42.8368 3.62102 42.9086 3.71344 43.4478C3.49779 43.6531 3.37456 43.4683 3.42077 43.535L3.25133 44.1358C3.04081 43.5042 3.08703 43.9715 3.16404 43.304C2.9638 43.8329 3.10243 44.182 3.05108 44.5671C3.40023 44.449 3.18458 44.4695 3.22052 44.4439C3.34889 44.3412 3.18972 44.413 3.32835 44.3566C3.25646 44.6749 3.31808 45.0805 3.32835 45.44C3.34375 45.8867 3.42077 46.0715 3.31808 46.4515C3.21025 46.8417 3.49779 47.8326 3.34375 48.5207C3.22566 48.2126 3.30781 48.2537 3.16404 47.9559C2.76355 48.7004 3.14864 48.4488 3.17945 49.1111L3.52859 50.9236C3.54913 51.3498 3.38483 51.1701 3.48238 51.6733C3.56454 52.0943 3.56453 51.9403 3.57994 52.4126C3.59021 52.8799 3.80586 53.3779 3.88287 53.8144C3.4105 53.532 3.2462 53.2393 3.27187 52.7618C3.29241 52.3972 3.11783 51.7965 2.89705 51.4936C3.05622 51.206 3.05622 51.242 2.96893 50.8774C2.94326 50.8774 2.91245 50.8877 2.89705 50.8877L2.63005 50.9031L2.56844 51.4011L2.89705 51.4987C2.78922 51.7759 2.86111 51.6835 2.86624 51.9762C2.87651 52.4794 2.76355 52.387 2.64032 52.7361C2.52223 53.0698 2.66086 52.9877 2.50682 53.3471L2.37333 52.8285C2.23983 52.8696 2.33738 52.9209 2.09606 52.9415C2.27577 52.5513 2.27064 52.7618 2.20389 52.3048C2.12174 52.3459 2.22956 52.4537 1.89582 52.3561L1.85474 51.9043L1.58775 51.627C1.47992 51.55 1.65449 51.6733 1.46452 51.5552L1.39777 51.6579C1.39777 51.6579 1.37723 51.6733 1.3721 51.6784C1.36696 51.6784 1.34642 51.6887 1.33615 51.6887C1.31562 51.6938 1.14104 51.6219 1.00755 51.7965C0.832971 52.0275 1.09997 52.3048 1.05889 52.5769C0.971603 53.1571 0.761088 52.2432 0.971604 53.6603L0.956201 54.0557C0.776493 53.84 0.69434 53.7784 0.761088 53.6809C0.576246 53.8606 0.00117937 54.2765 0.0165829 54.5075L0.0781966 54.9131C0.165483 55.5036 0.139811 55.0056 0.0319859 55.3752C-0.0912426 55.8168 0.186022 56.2122 0.119274 56.5921C0.432479 56.7154 0.391402 56.5716 0.766222 56.7924L0.822702 56.9721C1.22319 57.9168 0.755954 57.1775 1.01781 57.9322L1.09483 58.1787C1.41831 59.6523 1.45425 59.1953 1.47479 59.2107C1.58261 59.2877 1.48505 59.2159 1.59288 59.3545C1.69044 59.4829 1.6853 59.4623 1.7007 59.4675L1.84447 59.4931C2.06526 60.7151 1.71097 59.9758 1.88041 60.8127L1.8342 61.1156C1.74178 61.0386 1.73151 61.0438 1.65963 61.0284C1.51073 61.6034 1.66476 61.5521 1.85474 62.1425C1.97284 62.5174 1.83934 62.8665 2.16281 63.2105C2.21929 63.0205 2.15254 63.113 2.32712 62.9949C2.2655 62.7638 2.19875 62.7022 2.09093 62.4403L2.399 62.7638C2.46061 62.4609 2.20902 62.2196 2.14227 61.9115C2.00364 61.2697 2.07553 61.7831 2.20902 61.5418C2.30658 61.3672 2.30144 61.5829 2.27064 61.1516C2.4144 61.4802 2.64032 61.9782 2.73274 62.3017C2.94839 63.0565 2.57357 62.3274 3.04081 63.3286C3.24619 63.7651 2.87138 63.2054 3.49265 64.4325L4.54009 66.6917C4.72494 67.2976 4.81736 67.1641 5.05868 67.6827C5.17677 67.9343 5.21272 68.0524 5.1511 68.268C5.03301 68.6942 4.91491 68.0832 5.07922 68.6891C5.18704 69.0844 5.35648 69.3873 5.44377 69.8238C5.26406 69.6133 5.19218 69.4849 5.00734 69.3206C4.63765 68.9971 5.03301 69.3925 4.77115 69.1358C4.65819 69.0228 4.72494 69.1152 4.60171 68.8996C4.70953 68.8225 4.29364 68.8534 4.66846 68.9098C4.72494 68.9201 4.81736 68.9098 4.81222 68.9304C4.80195 68.9561 4.8687 68.9406 4.90464 68.9458C3.80072 67.9548 5.18704 68.6737 3.69803 67.3387C3.69803 67.3284 3.71857 67.3181 3.71857 67.313C3.71857 67.313 3.73397 67.2925 3.73911 67.2873C3.73911 67.2873 3.75451 67.2668 3.75451 67.2617C3.81613 67.0563 3.90341 67.6416 3.75451 67.1744L3.23593 66.1577C3.32835 66.5582 3.47725 66.5736 3.59021 66.9433C3.65696 67.1641 3.62101 66.9947 3.62615 67.2103C3.15891 66.7277 2.98434 65.8445 2.61465 65.2592L2.45548 65.4338C2.29117 64.9973 2.10633 64.5096 1.78799 64.2888V64.525C1.76745 65.3259 1.55694 64.412 1.63909 65.0692C1.64936 65.1616 1.70584 65.3105 1.72124 65.3927C2.28091 65.7162 1.50559 65.0435 2.02932 65.4851C2.31685 65.7264 2.49142 66.8458 2.6814 67.2565C2.9638 67.8675 3.08189 67.6467 3.00487 68.5299C2.94326 68.4426 2.07553 66.4658 1.65963 65.9472C1.45938 66.2193 1.5364 65.9472 1.63396 66.358C1.1051 66.1321 1.42344 66.168 1.06403 66.3374C1.20266 66.5993 1.35156 66.9382 1.27967 67.1436L0.848374 66.8355C0.827836 67.2257 0.879183 67.2 1.15645 67.2976L1.0897 67.8881C0.961334 68.3553 1.39263 68.0935 1.44398 68.879C1.47992 69.3925 1.47479 69.1974 1.67503 69.68C1.8342 70.0702 1.72124 70.0702 1.98824 70.4913C2.37333 71.1125 2.50682 71.7544 3.2462 72.8634C3.45158 73.1715 4.17554 74.1214 4.18068 74.3627C4.59657 74.8864 4.7352 75.4718 5.13056 75.826C5.10489 76.0622 5.45917 76.3138 5.65942 76.5654C5.62861 76.7194 5.70563 76.5962 5.60294 76.6732C5.59267 76.6784 5.45917 76.704 5.42837 76.7092C5.71076 76.9043 7.91861 80.1596 8.51935 80.8681C8.8839 81.2943 9.21764 81.4894 9.54111 81.9053L12.4729 84.9655C13.6693 86.1618 15.338 87.8511 16.7243 88.7342C17.4175 89.1758 18.2955 89.8279 18.9784 90.4132C19.7588 91.0807 20.4571 91.3836 21.2221 91.9638L22.3312 92.58L22.2131 92.2411C22.2131 92.2411 22.439 92.4105 22.1669 92.1795C22.0591 92.0871 21.8229 91.9382 21.6997 91.856L20.2312 90.8599C19.8769 90.6956 20.072 90.8137 19.8153 90.788C19.3943 90.7418 19.1221 90.3978 18.8089 90.0641L19.7845 90.7213C19.7485 90.5929 19.7793 90.4902 19.5175 90.2746C19.4148 90.1873 19.2505 90.1154 19.1119 90.0435C18.1004 89.4941 17.3045 88.5545 16.4778 87.9486C13.8644 86.0232 13.4844 85.1041 11.4563 83.3224C10.604 82.5779 11.025 82.8501 10.758 82.4752C10.5732 82.2134 10.1983 81.9361 9.97755 81.6845C9.60273 81.2532 9.17656 80.5857 8.73499 80.0569C8.32937 79.5691 7.8878 79.1378 7.56433 78.6808C8.40639 79.0505 7.88266 79.184 9.05333 80.0107C9.4641 80.2982 10.1521 81.13 10.5372 81.5151L10.5886 81.6383C10.5629 81.6434 10.568 81.587 10.5629 81.5562C12.2573 83.1222 14.7526 85.9975 16.5395 87.5635L16.5497 87.5789ZM59.2124 99.1316C52.7994 100.528 47.1669 100.241 41.2262 99.0341C32.8364 97.3345 40.8052 91.8098 42.9463 88.2772C43.2903 87.7124 43.5419 87.8254 44.158 86.8652C47.5365 81.3148 49.4877 83.2197 54.6427 88.1694C55.418 88.7496 55.3513 88.9653 55.7056 89.2836C56.3371 89.8535 56.1266 89.3401 57.174 90.6648C57.4256 90.9831 57.3127 90.8291 57.5437 90.9985C62.5088 94.567 63.7976 98.1355 59.2124 99.1316ZM60.9993 1.51929H60.8041C60.7785 1.51415 60.7425 1.50902 60.7169 1.50388C60.1007 1.4474 60.6347 1.44227 60.4036 1.68359C60.0956 1.64765 60.0904 1.60657 59.8543 1.55009C59.6232 1.48848 59.5719 1.50388 59.3203 1.432C59.3357 1.17527 59.2689 1.4474 59.3767 1.15987C60.0186 1.30364 59.1816 0.918547 60.111 1.07772C60.4396 1.1342 60.7271 1.21635 60.9993 1.51929ZM51.4542 0.302405C51.1667 0.415364 51.4131 0.338347 51.1872 0.384557C49.8984 0.641283 49.616 0.148369 49.1385 0.230522C48.7329 0.307539 48.7842 0.358885 48.317 0.158639C48.8407 -0.159701 50.8483 0.0610826 51.4542 0.29727V0.302405ZM42.1042 3.26502L42.2634 3.25475C41.3186 3.81442 41.6421 3.38312 40.9695 3.67065C40.4304 3.9017 40.8052 3.83495 40.2301 3.87603C40.0299 3.89143 37.1289 4.85159 36.944 4.70269C36.7438 4.54352 36.944 4.87213 36.903 4.61027L41.8886 3.27529C41.9194 3.27529 42.0015 3.26502 42.0272 3.26502C42.0477 3.26502 42.0837 3.26502 42.1042 3.25989V3.26502ZM24.2104 11.7062C24.154 11.8859 23.7791 12.1939 23.5378 12.3891C23.3889 12.5123 22.9833 12.8152 22.8498 12.9179C22.4185 13.2414 21.7767 13.8319 21.2427 13.9346C22.1258 12.8974 22.8395 12.5534 23.2708 12.158C23.7124 11.7524 23.4454 11.8037 23.4403 11.7986L23.353 11.7318C23.7124 11.5624 23.5635 11.7164 24.0461 11.5932C23.8356 11.8397 23.7021 11.9116 23.4711 12.1015C22.8446 12.6201 23.0911 12.5739 23.0808 12.692C23.3119 12.3839 23.8972 11.7883 24.2002 11.701L24.2104 11.7062ZM40.1788 6.51517L40.0812 6.75649C39.4291 6.75649 38.9516 7.01322 38.2379 7.40858C37.6577 7.73205 37.0878 7.59856 36.9646 7.61396C36.677 7.6499 36.6719 7.67557 36.4563 7.78853C36.3792 7.57802 36.2868 7.76799 36.3998 7.59856C36.5538 7.47533 38.8643 6.6538 38.6641 6.98755C38.659 6.99782 38.6795 7.00809 38.6949 7.01322C39.1724 6.79757 39.3419 6.29952 40.1839 6.51004L40.1788 6.51517ZM48.3119 2.86453C49.3131 3.12639 45.4211 3.6193 45.3646 3.62444C45.0566 3.66551 44.9436 3.68605 44.6972 3.71173C44.2864 3.75794 43.7062 3.98385 43.3416 3.81955C43.624 3.70659 44.4199 3.46013 44.6047 3.41906C44.9693 3.34204 44.9436 3.43446 45.262 3.25475C45.5752 3.07504 45.6265 3.09045 45.9859 2.99289C46.2375 3.08531 46.3197 3.0237 46.5507 2.99289C47.1052 2.92614 47.8292 3.05964 48.3016 2.86453H48.3119ZM93.4083 29.6256C93.5367 29.8824 94.0655 30.5036 94.2761 31.2327C94.4968 31.9772 94.9641 32.2442 94.9179 32.8552C94.8768 32.9374 94.5687 32.5164 94.769 33.379C94.8152 33.5844 94.7895 33.4971 94.8768 33.687L94.5893 33.7127C94.5893 33.7127 94.5533 33.7178 94.5431 33.723C94.5277 33.723 94.502 33.7333 94.4866 33.7333C94.4712 33.7333 94.4352 33.7435 94.4198 33.7487L94.2658 33.7897C94.0758 33.2352 94.0347 33.4868 94.1118 32.8604L94.4712 33.5022C94.5841 33.1582 93.4186 29.8567 93.2132 29.3894L93.4083 29.6205V29.6256ZM91.0413 42.3592V42.3746C91.0413 42.3746 91.1081 42.3336 91.2056 42.2771C91.2056 42.2771 91.3699 42.1693 91.3802 42.1641C91.257 42.6724 91.3494 42.2103 91.5137 42.7751C91.5548 42.924 91.4726 42.7905 91.5394 42.9548L91.9039 43.5967C91.9091 43.6223 91.9039 43.6839 91.9245 43.6788L92.0066 44.0434C92.1504 44.5619 92.1504 45.0343 91.9245 45.517L91.6575 45.9688C91.6318 45.7224 91.601 45.4451 91.4675 45.1421C91.3134 44.8033 91.3186 43.8585 91.2159 43.2578C91.18 43.0421 91.1286 43.0267 91.0824 42.7854C91.0567 42.6365 91.067 42.5081 91.0465 42.3798C91.0824 42.3695 91.1954 42.3079 91.0465 42.3541L91.0413 42.3592ZM91.0362 42.3849V42.3592V42.3798V42.3849ZM60.3626 3.89143C59.9364 4.03007 57.9802 3.54742 57.7029 3.455C56.8916 3.19314 56.5425 3.20341 55.721 3.16747L55.2486 3.1572C55.2486 3.1572 55.0894 3.13666 55.0432 3.13152L53.0716 2.98262C52.7994 2.97749 52.6659 3.0391 52.3938 3.01343L49.9138 2.76697C50.4324 2.76697 50.6378 2.64374 51.2231 2.65915C51.5004 2.66942 51.6493 2.65915 51.8958 2.63861L53.8058 2.73617C54.5349 2.77211 55.7826 2.78238 56.4603 2.92614L60.3626 3.8863V3.89143ZM91.0362 42.3849C90.9746 42.6981 91.0619 42.5133 90.8154 42.9343L90.4765 42.3695C90.2147 42.1333 90.4354 42.6879 90.2455 42.2925L91.0311 42.3849H91.0362ZM36.523 8.41494C35.2753 8.68707 31.255 10.5458 29.9508 11.4597C29.4682 11.7986 29.3244 11.8602 28.8212 12.0502C28.4515 12.1939 28.0356 12.5944 27.6814 12.6971C28.318 12.0913 28.9907 11.891 29.6992 11.2235C29.499 11.2441 29.6633 11.1979 29.4014 11.3005L28.4413 11.8705L28.6158 11.5111C27.8611 12.0142 25.1603 14.0167 24.6315 14.2272C25.3041 13.4262 26.6545 12.3685 27.5171 11.7935L30.4591 10.0272C30.8083 10.0169 31.0599 9.77046 31.4912 9.41617C31.3115 10.2839 30.2281 10.0734 28.8828 11.3416C28.9085 11.3416 28.9445 11.3314 28.965 11.3262C28.9855 11.3262 29.0215 11.3211 29.0471 11.3159L29.2012 11.2697C30.0124 10.9976 29.4066 11.1054 29.7454 11.1619C29.9662 11.1979 29.5401 11.2903 29.9919 11.167C30.2538 11.0952 30.4386 10.9001 30.5002 10.7717C30.6337 10.4944 31.5631 10.2069 32.0971 9.91936C32.3332 9.90395 32.8518 9.59588 33.2369 9.41104L35.5629 8.57411C36.0455 8.42008 36.6924 8.00418 36.5127 8.35333C36.5025 8.37387 36.5281 8.39954 36.523 8.42008V8.41494ZM40.8873 4.04547C40.9541 4.20977 41.0414 3.94791 40.9182 4.20464C41.103 4.1841 41.3751 4.11222 41.5908 4.04547C41.9553 3.93764 41.9245 3.89143 42.1915 4.01466C41.9297 4.14816 41.981 4.09681 41.7345 4.15329C41.6164 4.1841 41.4675 4.22518 41.3341 4.26112C39.9631 4.63594 40.4201 4.59486 40.2455 4.72836C40.0299 4.88753 39.2443 4.99022 39.003 5.0467C38.4947 5.16993 37.7861 5.49854 37.2778 5.61663C36.8773 5.70905 37.437 5.3445 36.6565 5.63717C36.3125 5.76553 36.0609 5.96064 35.989 6.2071C36.5127 6.34573 36.3125 5.91443 37.5448 5.9093L37.7707 5.8939C36.6976 6.44842 37.7553 5.9247 37.4318 6.3406C36.9697 6.30979 37.8939 6.39708 37.2983 6.29439C37.2059 6.27898 37.3497 6.25331 37.1494 6.28925L36.1636 6.54598C35.758 6.623 35.2548 6.87972 34.7619 7.00809C33.9095 7.234 32.3743 7.96311 31.9636 8.07607C31.5425 7.77826 32.1689 7.78853 31.6195 7.83988C30.8648 7.90663 29.6376 8.62032 28.9599 9.01055C28.4259 9.31862 28.3078 9.58048 27.933 9.47265L29.6119 8.35333L28.9034 8.58952C29.4528 8.0658 30.7672 7.5164 31.0753 7.45479L30.5259 7.90663C30.8802 7.86042 32.5489 6.92593 33.1085 6.67434C34.3357 6.12495 36.333 5.23154 37.6321 4.92347C38.1712 4.79511 38.6744 4.55379 39.5729 4.37408C39.9015 4.30733 39.9734 4.37408 40.2558 4.30733C40.5023 4.25598 40.6922 4.11222 40.8925 4.0506L40.8873 4.04547ZM89.768 31.6178C89.2802 31.5203 89.1159 30.8322 88.89 30.4626C88.8335 30.8168 88.5511 30.6269 88.89 31.3611C89.0389 31.6743 89.157 32.0183 89.2956 32.3572L90.8205 38.3595C90.5125 38.2362 90.5587 37.923 90.4971 37.4506C90.4098 36.7472 90.0812 37.1477 90.1582 36.5624C90.2455 35.9154 89.1724 33.3122 89.0543 32.845C88.9413 32.3829 88.9002 32.1364 88.6692 31.5768C88.2687 30.6063 88.0582 29.9234 87.4112 28.9992C87.3137 27.9312 86.5692 27.5975 86.1379 26.4166C86.1327 26.4063 86.066 26.2009 86.066 26.1958L86.03 26.0315C86.3689 26.5398 86.677 26.9916 87.0261 27.5205C87.3188 27.9672 87.4163 28.4806 87.745 28.9376C87.7193 28.5679 87.2161 27.5359 86.9696 27.1303C86.1841 25.8415 86.2765 25.8466 85.2188 24.5887C84.9929 24.3217 84.7977 24.0033 84.6232 23.7158C84.4127 23.3769 84.2278 23.0689 84.007 22.7762C83.8427 22.5554 83.4936 22.196 83.3806 21.9752C83.7041 21.8058 83.5347 22.0266 84.351 22.8327C85.2547 23.7312 86.03 25.7388 86.8207 26.2933C86.8156 26.1804 86.8207 26.206 86.7797 26.0571L84.9107 23.2794C84.1867 22.3808 84.7207 22.6786 83.9865 21.7647L81.7376 18.8329C81.4038 18.3554 80.8442 17.9497 80.4231 17.4106C79.9662 16.8253 79.3449 16.4145 78.8725 15.9011C78.5747 15.5725 78.7442 15.6546 78.3488 15.3055C78.1126 15.095 78.0459 14.9615 77.7121 14.7509L77.6813 14.828C77.6351 14.9717 77.9278 15.1104 77.63 14.8896L76.7468 14.0424C76.1461 13.3646 76.0229 13.4776 75.571 13.113C74.6622 12.3685 73.8407 11.8499 72.8035 11.167C72.3876 10.8949 71.4685 10.3301 71.0834 10.0169C71.5815 10.1555 72.3209 10.479 72.8343 10.7049C73.1937 10.8692 73.4453 11.013 73.7637 11.2338C74.236 11.5675 74.0255 11.3365 74.4312 11.5111C75.4375 11.9475 80.5156 16.0448 81.1317 17.0204C81.5681 17.7136 82.1689 17.9857 82.6669 18.6429C82.7337 18.7302 82.8928 18.9458 82.9493 19.0434C83.2933 19.6441 82.8158 19.0947 83.8787 20.0754C83.8889 20.0754 83.8941 20.0498 83.8941 20.0498C84.043 19.9163 83.8273 19.8906 84.0738 19.9984C84.2124 20.4554 84.0122 19.5928 84.0738 20.1987C84.12 20.6659 84.5872 21.0048 85.2496 21.472C85.2136 21.3488 85.2547 21.4309 85.1469 21.2358L84.844 20.8405C84.6334 20.594 84.5718 20.517 84.4075 20.2551L83.4884 19.0896C82.7747 18.3092 81.9584 17.5082 81.2139 16.7431C81.3576 16.5172 80.952 16.851 81.3165 16.7329C81.6503 16.625 81.2241 17.0358 81.3936 16.6918C81.409 16.6661 81.373 16.4659 81.3679 16.4402C81.7427 16.7534 81.7786 16.9588 82.1894 17.3541L86.1481 22.4835C86.4049 22.8224 86.641 22.9302 86.7591 23.341C86.1738 22.73 85.989 22.3654 85.6757 22.0009C85.6552 21.9752 85.5166 21.8366 85.4909 21.8058C85.2958 21.5953 85.1828 21.4669 84.9518 21.2615C84.9723 21.4977 85.0339 21.6569 85.2496 21.7493C84.9158 21.4823 84.8799 21.3693 84.5564 21.2615C84.3819 21.205 84.4127 21.2358 84.3048 21.2307C84.5872 21.5542 84.7721 21.6363 84.9466 21.9341C85.3728 22.6478 85.799 23.0997 86.1225 23.9058C86.5589 24.984 86.7489 24.3782 87.2007 25.8877C87.2623 26.1085 87.3753 26.2831 87.4985 26.4833C88.5203 28.1469 88.2738 28.2445 88.6897 29.0711L89.7782 31.6178H89.768ZM40.2969 5.93497C39.9888 5.98118 39.9169 6.08901 39.7115 6.1917C39.501 6.29952 39.2289 6.29952 38.9927 6.37654C38.7668 6.44842 38.546 6.58192 38.3304 6.65894C37.9761 6.7873 37.8837 6.74623 37.6115 6.79757C38.8438 6.01712 40.0247 5.82715 40.99 5.52934L43.1363 5.03643C43.6446 4.94914 43.9989 4.92861 44.4866 4.90807C45.3082 4.87213 45.683 4.35354 46.5764 4.50244C47.3363 4.6308 46.9512 4.44596 48.3324 4.17897C48.5737 4.13276 48.5378 4.1687 48.5737 4.09168C48.5532 4.05574 48.2092 4.08655 48.05 4.09168C47.6136 4.10195 47.7111 4.12249 47.3106 4.21491C46.8742 4.3176 46.9307 4.1995 46.561 4.21491C45.8422 4.24058 43.357 4.73349 42.9052 4.64107C43.3673 4.3176 43.4033 4.4819 43.8551 4.39975L46.7458 3.91197C47.4133 3.80928 47.9833 3.87603 48.6405 3.85036C49.0512 3.82982 49.195 3.85036 49.5904 3.80415C50.0627 3.75794 50.1757 3.95818 50.5865 3.74253C50.2322 3.59363 50.4889 3.69119 50.1449 3.68092C50.6121 3.455 50.9356 3.73226 51.2796 3.81955L55.1767 3.99926C55.7056 4.02493 55.1613 3.7528 56.1831 3.99412L56.7889 4.10195C58.7349 4.64107 58.2934 4.10195 60.1675 4.72836L59.921 4.41515C60.7785 4.73349 62.2469 4.99022 63.1557 5.16993C64.1056 5.35477 63.623 5.53448 64.7423 5.70905C65.1788 5.7758 65.9797 6.25331 66.4264 6.29952L65.7538 5.77067L66.8423 6.01199C67.0323 6.26871 66.9758 6.19683 67.2685 6.33546C67.289 6.83865 67.2017 6.57165 68.2184 7.00295L68.0438 7.26481C67.7665 7.44965 66.4418 6.7873 66.1338 6.64867C66.7859 7.06457 67.7922 7.40858 68.5881 7.75772C69.2504 8.05039 70.3235 8.56385 71.0526 8.66654C70.303 8.27631 70.2311 8.08633 69.5174 7.83988C68.9321 7.6345 69.158 7.55748 69.1529 7.54721C69.1426 7.54721 69.1272 7.56775 69.1272 7.56775C69.1272 7.56775 69.1015 7.58829 69.0964 7.58829L69.0142 7.61396C68.701 7.62936 68.4905 7.34183 68.2851 7.13131L69.8614 7.76286C70.9551 8.30712 73.4864 9.70371 74.2412 10.4585C73.3324 10.2377 72.0898 8.77949 70.9808 8.70248C71.4223 9.29808 72.249 9.56508 72.9524 9.92963C73.4967 10.2172 74.426 10.7666 74.9292 11.1568C75.5299 11.6086 76.0434 12.2248 76.5774 12.7639C77.2089 13.4057 77.6043 13.2003 78.1999 13.9037C78.1691 13.9037 78.128 13.914 78.1075 13.914L77.8918 13.9346C77.0498 12.959 74.0153 10.9719 72.48 10.1504C72.1925 9.99638 71.8536 9.73965 71.5712 9.61129C71.2888 9.47779 71.0218 9.43158 70.6727 9.27241L66.9964 7.60369C66.4264 7.33669 65.7487 7.25454 65.2044 6.97728C63.9773 6.34573 64.1621 6.59732 63.854 6.46383C63.7205 6.40735 63.8078 6.42789 63.7976 6.40221C63.7514 6.23791 64.0646 6.42789 63.2687 5.98118C63.3919 5.95551 63.5254 5.87849 63.7257 6.02226C63.4946 5.84255 62.9452 5.69365 62.6885 5.63717L61.7489 5.56529C61.5332 5.52421 61.3998 5.478 61.1892 5.42665C60.9633 5.37531 60.8401 5.30856 60.7631 5.40098C60.6604 5.52421 61.1995 5.58069 60.5423 5.53448H59.921L60.9582 5.90416C60.9376 5.90416 60.7477 5.93497 60.7374 5.94011L60.5731 5.98632C59.921 5.50881 57.4872 5.20073 56.7068 5.13912C55.7415 5.0621 54.4527 4.97482 53.4977 4.75403C53.1075 4.66161 53.1794 4.73863 52.82 4.72836C52.5478 4.71809 52.4914 4.64107 52.1987 4.6308C51.7879 4.6154 52.0241 4.70782 51.6647 4.76944C51.1718 4.85672 50.8843 4.70782 50.3811 4.73349C50.0884 4.7489 50.0576 4.80024 49.7752 4.82078C48.8664 4.88753 47.6598 4.72836 46.525 4.93374C45.9654 5.03643 45.7805 5.04157 45.2312 5.0467L40.9387 5.83228C40.6717 5.85795 40.5947 5.9093 40.302 5.95037L40.2969 5.93497ZM70.1695 13.7754C70.0976 13.9294 70.4468 13.837 70.113 13.8267C69.882 13.8216 69.9693 13.7754 69.8152 13.6419L69.4969 13.2619C69.1939 12.8717 69.2761 13.2927 68.7781 13.0309C68.3981 12.8306 68.0592 12.4096 67.6639 12.1067C67.8898 12.1015 67.8641 12.158 67.936 11.9783C68.4854 12.3223 68.0541 12.3531 68.8397 12.4763L69.0964 12.6047C69.4096 12.7331 69.0245 12.6047 69.2402 12.5431C69.9076 12.9487 70.226 13.0052 70.6367 13.4981C70.7754 13.6676 71.5712 14.3813 71.8177 14.5404C72.2747 14.4326 71.6328 14.7458 71.8177 14.5404C71.8331 14.5199 71.8588 14.4942 71.8947 14.4634C71.9717 14.3967 71.8074 14.4326 71.9974 14.3915C72.824 15.3055 72.8651 14.6637 72.9986 15.2952L73.1527 15.4441C73.1527 15.4441 73.1989 15.4595 73.2194 15.4646C73.6764 15.6597 74.4979 16.4248 74.8984 16.738C75.2321 16.9947 75.4375 17.3285 75.7661 17.5647C76.141 17.8316 76.1255 17.8471 76.5312 18.1859C76.9471 18.5402 79.5143 21.2615 79.6478 21.549C79.4989 21.5131 77.5375 19.6133 77.2141 19.2693C76.9009 18.9356 77.173 19.1718 76.9009 19.0383L76.5517 18.8791C76.3771 18.7713 76.0331 18.5248 75.8483 18.381C75.3451 17.9754 74.8625 17.4876 74.3695 17.0615C74.8368 17.1334 75.3451 17.806 75.8842 18.2373C75.874 18.2116 75.8534 18.1859 75.838 18.1705L74.5338 16.7739C74.0871 16.471 73.5942 16.0192 73.0551 15.6033C72.706 15.3311 72.5673 15.3106 72.2747 15.0795C71.6791 14.602 71.9871 15.0539 71.525 14.525L70.1952 13.6367L70.1695 13.7857V13.7754ZM67.4585 11.9629C66.0362 11.5265 66.6421 11.6651 65.3739 11.0541C65.6819 11.0027 65.6819 11.0746 65.9284 11.0746C65.5998 10.6741 65.5484 10.859 65.1171 10.4944C65.7179 10.1607 65.3328 10.4533 65.646 10.7049C65.9695 10.9617 67.2582 11.3365 67.6433 11.8705L67.7101 12.0142L67.4636 11.9629H67.4585ZM51.7674 8.13254C51.7417 8.13254 51.6442 8.14281 51.6134 8.14795H50.8689C50.4221 8.10687 50.2527 8.17362 49.8111 8.04012C50.3965 7.63963 50.0627 7.87068 50.4632 7.85015C50.6121 7.85015 50.7816 7.73205 50.9921 7.73205C51.1923 7.73205 51.7725 7.95284 51.942 8.12228H51.7674V8.13254ZM75.8842 20.9021C75.3297 20.3527 75.6788 20.7172 75.6737 20.5427C76.6185 20.9175 77.3116 21.8571 78.1845 22.7813L79.54 24.5579C79.7556 24.9481 80.0124 25.1278 80.2691 25.4615C80.4591 25.7131 80.7774 26.1855 80.9263 26.4525C81.5681 27.577 82.5334 28.9427 82.8723 30.2315C82.3075 29.3586 82.6104 30.3137 82.4051 29.7078C82.2151 29.1327 82.097 29.2765 82.0354 28.9838L82.0559 28.7014C82.0559 28.7014 82.0713 28.6552 82.0713 28.6295C81.4706 28.3112 81.2806 27.6951 81.1728 27.2792C81.1009 27.007 81.1214 27.1303 80.9006 26.9197C80.2126 26.2677 81.0136 26.8222 80.2229 25.9545C79.8635 25.5591 80.2537 25.6875 79.7659 25.2356C80.2434 25.5488 79.9508 25.5488 79.961 25.6258L78.7955 24.4038C78.9085 24.1882 79.5451 25.0405 78.6004 23.9109C78.205 23.4334 78.2974 23.2434 77.7737 22.7351L78.015 23.1561C77.8456 22.9918 77.671 22.7762 77.4297 22.7197C77.5375 22.5143 77.5119 22.3552 77.3065 22.2371C77.0703 22.1087 77.4657 22.4527 77.096 22.1498L76.0075 20.938C75.8586 20.8353 76.0896 20.8764 75.8894 20.9072L75.8842 20.9021ZM2.99974 38.0257C2.82517 37.6971 2.84057 37.9179 2.90732 37.4969L3.1281 35.9308C3.36942 35.9616 3.1127 36.0695 3.31808 35.9411C3.31808 35.9411 3.33862 35.9154 3.34889 35.9052C3.35916 35.9 3.37969 35.8692 3.38996 35.8641L3.00487 38.0206L2.99974 38.0257ZM2.83543 49.6246C2.77895 49.7838 2.71734 49.7324 2.77895 49.8813L3.10756 49.7838C3.09729 50.2099 3.03568 50.2202 3.17431 50.5847L3.02541 50.5693C3.02541 50.5693 2.96893 50.5693 2.95353 50.5745L2.57357 50.7542C2.5633 50.3229 2.48629 50.6618 2.46575 49.6605C2.45034 48.8287 2.2501 49.3011 2.79436 48.3256L2.83543 49.6246ZM12.3343 15.0539C11.7644 16.0397 12.17 15.3003 11.6463 15.7368L8.91984 19.0742C8.40639 19.6287 8.39098 19.4644 8.31396 19.4798C8.9147 18.0114 9.7619 17.1077 10.9582 15.8138L11.1688 15.9319C11.4717 15.6752 12.5602 14.792 12.8067 14.7253C12.7451 14.9974 12.7245 14.9306 12.4575 15.1617C12.4883 15.1617 12.627 15.3003 12.4729 15.1206C12.4062 15.0487 12.5345 15.1104 12.3394 15.0539H12.3343ZM0.838105 56.6897C0.478689 55.9195 0.720012 56.4946 0.776491 55.7757L0.889451 54.908C0.9562 55.1237 0.971603 55.1699 1.03322 55.365C1.12564 55.6525 1.14104 55.4985 1.06916 55.7347C1.09997 55.7347 1.16671 55.7347 1.18725 55.7347C1.20266 55.7347 1.2386 55.7449 1.24887 55.7449C1.48506 55.8065 1.15131 55.6782 1.46965 55.8579C1.51586 56.2841 1.59288 56.0222 1.44911 56.3867L1.32588 56.2995C1.48505 56.5613 1.43885 56.4227 1.42344 56.6794C1.17185 56.7821 1.31562 56.777 1.07429 56.777C0.776492 56.777 1.02295 56.7718 0.827838 56.6948L0.838105 56.6897ZM6.21908 40.0898C6.16774 40.0282 6.06505 40.0333 6.03937 39.8587L6.55796 39.9306C6.55796 39.9306 6.57336 39.9614 6.58877 39.9717C6.77361 39.8177 6.81469 39.6123 6.86603 39.3966C7.0098 38.7548 6.7274 38.226 7.19977 37.4558L7.21518 37.4301C7.21518 37.4301 7.20491 37.4506 7.19977 37.4558H7.12789C6.73253 36.9937 7.08168 37.959 7.06628 37.3069C7.06628 37.2863 7.08168 37.1991 7.09195 37.1785C7.09195 37.1631 7.11249 37.1374 7.12276 37.122L7.32814 36.7215C7.81592 35.9 7.48217 36.4494 7.84672 36.4545C7.63107 37.0091 7.65161 36.8602 7.58486 37.425C7.53865 37.7998 7.4565 37.7382 7.42056 37.9025L7.36408 38.4211L7.28193 39.2066C7.26139 39.3453 7.25112 39.5199 7.23058 39.6944C7.20491 39.9049 7.29733 39.6944 7.17924 39.9306C6.96872 40.3465 7.27679 39.9871 7.06628 40.023L7.36408 38.4262L7.40002 38.2208C7.46677 37.9384 7.43083 37.8614 7.62081 37.5533C7.94428 37.6714 7.87753 37.9025 7.87753 37.9282C8.40639 37.5533 8.31397 37.8255 8.57583 37.5071C8.78634 37.2555 8.70932 36.8294 8.98659 37.1323L9.09954 37.3531C9.25871 37.5687 9.21764 36.6753 9.07901 38.1643C9.03793 38.6419 9.05334 38.9397 8.86849 39.4223C8.63744 39.0167 8.7658 38.8164 8.42179 38.4313C7.76457 39.3504 7.71323 40.9832 7.63621 41.1475C7.43596 41.5634 7.43083 41.1629 7.28706 41.7123C7.13816 42.2822 6.89684 43.417 6.70173 43.7969C6.35771 43.227 6.7428 42.8368 6.54769 42.3028C6.50661 42.6622 6.64525 42.5544 6.32177 42.8316C6.26016 42.2668 6.34231 41.8047 6.36798 41.3015C6.17287 41.8201 6.12153 42.7854 5.97776 43.1294V42.3182C6.05478 41.9793 6.09072 41.9074 6.11639 41.5685C6.11639 41.5326 6.32177 40.1155 6.22422 40.1668C6.20881 40.1719 6.21908 40.1309 6.21395 40.1103L6.21908 40.0898ZM9.17143 42.2925C8.93524 42.6006 8.92497 42.3798 8.67338 42.9446C8.41152 42.39 8.71959 42.1179 9.13035 42.0204L9.17656 42.2925H9.17143ZM8.52962 45.8815C8.63744 45.9072 8.59123 46.205 8.59123 46.5182C8.59636 46.8982 8.56556 47.0676 8.59123 47.4732C8.62204 47.8788 8.66825 48.1356 8.59123 48.495C8.52961 48.7825 8.53475 48.6388 8.51935 48.9622L8.46287 49.5116C8.29856 49.0136 8.50908 49.3268 8.26775 48.6439C8.07264 48.0945 8.21127 47.5143 8.1702 47.0214C8.12912 46.5028 8.25235 46.3077 8.28829 46.2615C8.3037 46.2409 8.30883 46.2461 8.27802 46.2615C8.27802 46.2615 8.27802 46.2615 8.28829 46.2615C8.30883 46.2512 8.33964 46.2101 8.21641 46.0356C8.14966 45.9431 8.11885 45.9021 8.10345 45.8867C8.0521 45.8353 8.24208 46.1691 8.10858 45.9021C8.10858 45.9021 8.10858 45.8918 8.10345 45.8867C8.0521 45.6556 7.91347 43.4529 8.6015 43.3143C8.61177 43.7045 8.4526 43.5967 8.51935 44.639C8.55529 45.2243 8.47827 44.7981 8.34477 45.6659C8.30883 45.9175 8.37558 45.6915 8.26262 45.9637L8.52448 45.8918L8.52962 45.8815ZM4.50415 58.4816C4.23716 58.8051 4.49902 58.7127 4.35525 59.031L3.87774 58.6665C3.87774 58.6665 3.68776 58.3276 3.59021 58.3892C3.50292 58.4457 3.45671 58.0401 3.46184 57.9579L3.52346 57.5574C3.52346 57.2339 3.40536 57.0337 3.20512 56.7924L3.31808 57.6293C3.33862 57.7833 3.33348 57.732 3.33348 57.8655C2.94839 56.9207 2.9638 55.9863 2.82003 55.7603C3.26673 55.8476 3.03568 55.6782 3.29754 56.551C3.4105 56.1403 3.20512 56.2738 3.35402 55.8374C3.47725 56.1557 3.544 56.5562 3.56453 56.7975C3.63128 56.4894 3.78019 56.4484 3.80586 56.3303L3.86747 56.5921V56.6024C3.86747 56.6024 3.85207 56.6383 3.85207 56.6486L3.87774 57.0388C3.80586 56.7154 3.82126 56.6024 3.86747 56.5921C3.89828 56.587 3.94962 56.6281 3.9907 56.6794C4.08312 56.7872 4.14987 56.931 3.9907 56.6897V56.6794C4.12933 56.3765 4.02664 56.397 4.06258 56.0941C4.34498 56.3457 4.18581 56.2019 4.24743 56.5665C4.2731 56.7205 4.38606 56.8848 4.27823 57.0491C4.00097 57.4547 4.13447 57.3212 4.24229 57.9836L4.46308 57.8244C4.46308 57.8244 4.50929 57.7987 4.53496 57.7936C4.59144 58.0452 4.60684 58.076 4.67359 58.3173C4.46821 58.6819 4.75061 58.2095 4.51956 58.4868L4.50415 58.4816ZM1.68017 67.3387C1.74178 67.3387 1.74692 67.3027 1.88041 67.3489C1.97283 67.3798 1.98824 67.39 2.06526 67.467C2.30658 67.693 2.28091 68.2013 2.30144 68.6326C2.09606 68.345 1.72124 67.657 1.67503 67.3438L1.68017 67.3387ZM4.3039 72.3551C4.39633 72.7402 4.48875 72.7967 4.62738 73.0945L2.88165 70.2654C2.94839 70.2654 3.21025 70.1575 3.49779 70.635C3.61075 70.8199 3.65182 71.0304 3.76992 71.246C3.95476 71.5849 4.31417 72.0522 4.52469 72.4578L4.3039 72.3551ZM98.9896 43.9766C98.738 44.069 98.9125 43.9972 98.6918 43.9253L98.6301 44.1717C98.4556 43.3759 98.6199 43.7558 98.7688 43.3091L98.815 43.1294C98.969 43.494 99.0255 43.6634 98.9896 43.9715V43.9766ZM98.0089 58.3892C98.127 58.6408 98.0602 58.4714 98.0807 58.7332C98.127 59.3288 98.3015 58.6357 98.1526 59.1132C98.0705 59.3699 98.1013 59.1902 97.9883 59.3956C97.7624 59.7909 97.7829 60.1195 97.6546 60.5046L97.4492 60.1144C97.326 59.8988 97.4184 60.0836 97.3568 59.9142C97.3568 59.8988 97.367 59.8371 97.3465 59.8423C97.326 59.8474 97.3414 59.7909 97.3362 59.7653L97.4184 59.7088C97.7162 59.4829 97.7983 58.9694 98.0089 58.3943V58.3892ZM96.6174 43.3707L96.2529 43.8277C96.068 43.4734 96.0937 43.6685 96.1656 42.9548C96.2272 42.3233 96.145 42.7187 96.0218 42.3387C96.1912 41.8253 96.1604 42.5595 96.1758 41.7996C96.1861 41.5223 96.2683 41.4812 96.1707 41.2656C96.2015 41.7123 96.3812 42.0101 96.4428 42.3952C96.5147 42.8573 96.3093 42.7957 96.6174 43.3759V43.3707ZM97.3773 62.3325C97.1771 62.6457 96.7252 63.0411 96.4326 63.1284C96.5045 62.8665 96.5045 62.579 96.5609 62.3222C96.9922 62.0142 96.9717 62.2401 97.1309 61.6034C97.3414 61.7061 97.0795 61.4597 97.3208 61.8755L97.557 61.4905C97.3516 62.122 97.4697 61.8653 97.023 62.502L97.3773 62.3274V62.3325ZM97.0128 38.9653L96.8895 39.3658C96.6636 38.837 96.6482 39.1194 96.4942 38.7497L96.2426 36.5829L96.6431 37.122C96.7201 37.1836 96.7304 37.1682 96.7971 37.2658C96.7971 37.7947 96.6842 37.6663 96.8331 38.0925C97.059 38.7291 96.7663 38.4519 97.0076 38.9653H97.0128ZM93.9372 68.2167C94.2042 68.1448 94.1528 68.1243 94.389 67.657C94.5071 68.1345 94.4506 67.7186 94.389 68.0524C94.3839 68.078 94.3634 68.114 94.3582 68.1345L94.5893 68.3913C94.6509 68.1705 94.6098 68.2424 94.6098 68.1705C94.6355 67.7494 94.7176 67.9394 94.8563 67.6416C94.8871 67.6416 94.9281 67.6365 94.9436 67.6365L95.1746 67.6005C94.959 67.9548 94.9127 67.8829 94.8049 68.2578C94.5841 69.0331 94.6303 68.5966 94.4044 69.0228C94.199 69.4079 94.4044 69.3976 94.0347 69.3822C93.7113 69.3668 94.2145 69.4387 93.9423 69.3463C93.6445 69.2436 93.9167 69.3206 93.9218 69.3052L93.8756 69.7827L93.6137 69.6338C93.6137 69.6338 93.5264 69.6338 93.4956 69.6287C93.7678 69.1358 93.6445 68.7404 94.0502 68.3604L93.9321 68.2167H93.9372ZM86.8926 73.6593C86.6102 73.9417 86.487 74.0392 86.1892 74.1881C86.7129 73.3615 86.9645 73.2947 87.478 72.6375L86.9645 72.6529L87.9401 71.5233C87.5396 71.5747 88.0992 71.1228 87.4882 71.7338C87.1134 72.1035 87.3958 72.3243 86.7797 72.7453C86.8362 72.391 87.2315 71.9751 87.3804 71.5901C87.6474 70.9123 87.7809 70.8456 88.2789 70.3167C88.2635 70.9482 87.9144 70.902 87.8477 71.513L88.9464 69.7981C89.0029 69.6903 89.0183 69.6338 89.0953 69.5414C89.1929 69.4284 89.2648 69.4336 89.2853 69.4233C89.1569 69.9111 88.854 70.3886 88.5819 70.9123C88.2944 71.4617 87.7809 71.8468 87.6115 72.2986L88.2789 71.8262C88.1352 72.4167 88.0633 72.1651 88.0582 72.1651C88.053 72.1651 88.0222 72.1395 88.0017 72.1549C87.9811 72.1703 87.9606 72.1446 87.9401 72.1395C87.6063 72.6991 87.4112 72.7761 87.2058 73.4128C87.0261 73.4025 87.1956 73.305 86.7283 73.5001C86.8361 73.6901 87.0775 73.2434 86.867 73.6182C86.8618 73.6336 86.8875 73.6387 86.8926 73.649V73.6593ZM93.0078 58.8873C93.0643 59.0824 93.2132 58.8359 93.013 59.0978C93.2132 59.0002 93.1362 59.0105 93.3724 59.0926C93.2594 59.3853 93.3313 59.3853 93.2902 59.5445C93.167 60.0117 93.0643 59.9758 92.9873 59.8936C92.9462 59.8474 92.9103 59.7909 92.8846 59.7909L92.9 59.7499L93.0592 59.3648C92.7819 59.6523 92.8333 59.6934 92.9 59.7499C92.936 59.7807 92.9822 59.8166 92.9873 59.8936C92.9924 59.9809 92.9514 60.1247 92.8076 60.3763L92.7203 60.1812C92.6022 59.8217 92.6484 59.8525 92.7203 59.6061C92.8179 59.2569 92.8025 59.1902 93.013 58.8924L93.0078 58.8873ZM92.823 69.8341L93.9372 68.2218C93.7113 68.4221 93.6497 68.8328 93.434 69.1563C93.0386 69.757 93.3519 69.3822 93.2132 69.9521C93.0181 69.9111 93.1259 70.0702 93.0951 69.8135C93.0951 69.8032 93.1567 69.6184 93.167 69.6235L92.823 69.8289V69.8341ZM94.8614 67.6313L94.8871 65.7521C94.9641 65.557 95.0822 65.4184 95.3184 65.2695C95.457 65.3157 95.6264 65.1616 95.4673 65.5467C96.0475 65.177 95.8524 65.1719 95.5751 64.9871C96.0629 64.4274 95.9191 64.3298 96.1758 63.8318C96.335 64.1861 96.3812 63.9499 96.0269 64.4171L96.2785 64.335C96.4839 64.3915 96.335 64.2272 96.3093 64.4993C96.222 65.3465 96.1296 65.2335 95.801 65.8343C95.5289 66.3323 95.7343 66.6096 94.8614 67.6365V67.6313ZM94.8768 65.7726C94.8922 65.9164 95.0565 65.9164 94.8409 65.8702C94.8511 65.8343 94.8614 65.8035 94.8768 65.7726ZM92.1709 61.1978C92.0374 61.4442 91.9758 61.4956 91.791 61.5418L91.6472 61.1978L91.9245 60.9051C92.1504 60.9719 91.9399 60.8332 92.0939 60.9975C92.2941 61.2132 92.1401 61.1156 92.176 61.1978H92.1709Z" fill="#00741B"/>
<path d="M106.193 17.9513H110.946C115.441 17.9513 119.22 21.372 119.22 26.145C119.22 30.938 115.461 34.3587 110.946 34.3587H106.193V17.9513ZM109.932 31.0175H110.509C113.273 31.0175 115.163 28.9094 115.183 26.1649C115.183 23.4204 113.293 21.2924 110.509 21.2924H109.932V31.0175ZM131.059 17.9513V21.2327H125.41V24.4943H130.82V27.7758H125.41V31.0772H131.059V34.3587H121.672V17.9513H131.059ZM137.742 17.9513V31.0772H143.391V34.3587H134.003V17.9513H137.742ZM149.783 17.9513V34.3587H146.044V17.9513H149.783ZM167.794 25.1705V28.7304C166.899 32.887 163.438 34.657 160.216 34.657C155.801 34.657 152.222 30.8584 152.222 26.1649C152.222 21.4515 155.603 17.653 160.216 17.653C163.1 17.653 165.109 18.7269 166.541 20.4571L164.095 23.142C163.14 21.6106 161.887 21.0339 160.435 21.0339C158.128 21.0339 156.259 23.321 156.259 26.1649C156.259 28.9492 158.128 31.2164 160.435 31.2164C162.225 31.2164 163.995 30.0629 163.995 28.0542H160.216V25.1705H167.794ZM173.981 27.7758V34.3587H170.242V17.9513H173.981V24.4943H179.271V17.9513H183.01V34.3587H179.271V27.7758H173.981ZM184.2 21.2327V17.9513H195.735V21.2327H191.837V34.3587H188.098V21.2327H184.2ZM203.923 17.653C206.906 17.653 209.015 19.2042 209.015 19.2042L207.503 22.1874C207.503 22.1874 205.872 21.0538 204.182 21.0538C202.909 21.0538 202.233 21.6305 202.233 22.5255C202.233 23.4403 203.784 24.0966 205.653 24.8921C207.483 25.6677 209.492 27.219 209.492 29.3668C209.492 33.2847 206.509 34.657 203.307 34.657C199.468 34.657 197.142 32.4892 197.142 32.4892L199.011 29.347C199.011 29.347 201.199 31.1965 203.028 31.1965C203.844 31.1965 205.395 31.117 205.395 29.5856C205.395 28.3923 203.645 27.8554 201.696 26.8809C199.727 25.9064 198.573 24.375 198.573 22.6647C198.573 19.602 201.278 17.653 203.923 17.653ZM114.924 55.9777C116.833 55.9777 118.146 54.9635 118.146 54.9635L119.737 58.1455C119.737 58.1455 117.907 59.657 114.347 59.657C109.713 59.657 105.457 55.8783 105.457 51.1848C105.457 46.4714 109.694 42.653 114.347 42.653C117.907 42.653 119.737 44.1644 119.737 44.1644L118.146 47.3465C118.146 47.3465 116.833 46.3322 114.924 46.3322C111.165 46.3322 109.515 48.9574 109.515 51.145C109.515 53.3526 111.165 55.9777 114.924 55.9777ZM129.5 42.9513L136.123 59.3587H132.106L130.892 56.0772H124.648L123.435 59.3587H119.417L126.04 42.9513H129.5ZM129.62 52.7957L127.79 48.0226H127.75L125.921 52.7957H129.62ZM134.777 46.2327V42.9513H146.312V46.2327H142.414V59.3587H138.675V46.2327H134.777ZM157.045 42.9513V46.2327H151.397V49.4943H156.807V52.7758H151.397V56.0772H157.045V59.3587H147.658V42.9513H157.045ZM159.195 42.9513H165.062C168.105 42.9513 170.412 44.602 170.412 47.8238C170.412 50.2898 169.059 51.9405 167.051 52.5769L172.699 59.3587H167.946L162.934 52.8753V59.3587H159.195V42.9513ZM162.934 50.2302H163.371C164.783 50.2302 166.474 50.1307 166.474 48.0823C166.474 46.0339 164.783 45.9344 163.371 45.9344H162.934V50.2302ZM177.17 42.9513V59.3587H173.431V42.9513H177.17ZM183.288 49.1761V59.3587H179.549V42.9513H183.288L189.811 53.1338H189.851V42.9513H193.59V59.3587H189.851L183.327 49.1761H183.288ZM210.816 50.1705V53.7304C209.921 57.887 206.46 59.657 203.239 59.657C198.823 59.657 195.244 55.8584 195.244 51.1649C195.244 46.4515 198.625 42.653 203.239 42.653C206.122 42.653 208.131 43.7269 209.563 45.4571L207.117 48.142C206.162 46.6106 204.909 46.0339 203.457 46.0339C201.15 46.0339 199.281 48.321 199.281 51.1649C199.281 53.9492 201.15 56.2164 203.457 56.2164C205.247 56.2164 207.017 55.0629 207.017 53.0542H203.239V50.1705H210.816ZM112.239 67.653C115.222 67.653 117.33 69.2042 117.33 69.2042L115.819 72.1874C115.819 72.1874 114.188 71.0538 112.498 71.0538C111.225 71.0538 110.549 71.6305 110.549 72.5255C110.549 73.4403 112.1 74.0966 113.969 74.8921C115.799 75.6677 117.808 77.219 117.808 79.3668C117.808 83.2847 114.825 84.657 111.623 84.657C107.784 84.657 105.457 82.4892 105.457 82.4892L107.327 79.347C107.327 79.347 109.515 81.1965 111.344 81.1965C112.16 81.1965 113.711 81.117 113.711 79.5856C113.711 78.3923 111.961 77.8554 110.012 76.8809C108.043 75.9064 106.889 74.375 106.889 72.6647C106.889 69.602 109.594 67.653 112.239 67.653ZM129.738 67.9513V71.2327H124.09V74.4943H129.499V77.7758H124.09V81.0772H129.738V84.3587H120.351V67.9513H129.738ZM132.683 67.9513H138.55C141.593 67.9513 143.9 69.602 143.9 72.8238C143.9 75.2898 142.547 76.9405 140.538 77.5769L146.187 84.3587H141.433L136.422 77.8753V84.3587H132.683V67.9513ZM136.422 75.2302H136.859C138.271 75.2302 139.962 75.1307 139.962 73.0823C139.962 71.0339 138.271 70.9344 136.859 70.9344H136.422V75.2302ZM152.845 84.3587L145.964 67.9513H150.18L154.317 78.7304L158.454 67.9513H162.67L155.789 84.3587H152.845ZM167.844 67.9513V84.3587H164.105V67.9513H167.844ZM179.109 80.9777C181.018 80.9777 182.33 79.9635 182.33 79.9635L183.921 83.1455C183.921 83.1455 182.092 84.657 178.532 84.657C173.898 84.657 169.642 80.8783 169.642 76.1848C169.642 71.4714 173.878 67.653 178.532 67.653C182.092 67.653 183.921 69.1644 183.921 69.1644L182.33 72.3465C182.33 72.3465 181.018 71.3322 179.109 71.3322C175.35 71.3322 173.699 73.9574 173.699 76.145C173.699 78.3526 175.35 80.9777 179.109 80.9777ZM195.534 67.9513V71.2327H189.886V74.4943H195.296V77.7758H189.886V81.0772H195.534V84.3587H186.147V67.9513H195.534ZM204.525 67.653C207.508 67.653 209.617 69.2042 209.617 69.2042L208.105 72.1874C208.105 72.1874 206.474 71.0538 204.784 71.0538C203.511 71.0538 202.835 71.6305 202.835 72.5255C202.835 73.4403 204.386 74.0966 206.256 74.8921C208.085 75.6677 210.094 77.219 210.094 79.3668C210.094 83.2847 207.111 84.657 203.909 84.657C200.07 84.657 197.744 82.4892 197.744 82.4892L199.613 79.347C199.613 79.347 201.801 81.1965 203.63 81.1965C204.446 81.1965 205.997 81.117 205.997 79.5856C205.997 78.3923 204.247 77.8554 202.298 76.8809C200.329 75.9064 199.176 74.375 199.176 72.6647C199.176 69.602 201.88 67.653 204.525 67.653Z" fill="#00741B"/>
</svg>
